{"glyphs":{"0":{"ha":861,"x_min":53,"x_max":802,"o":"m 53 452 q 100 702 53 588 q 237 876 148 817 q 428 935 327 935 q 624 871 539 935 q 756 690 709 806 q 802 450 802 574 q 754 204 802 315 q 616 35 705 93 q 426 -22 527 -22 q 236 36 325 -22 q 100 207 148 94 q 53 452 53 319 m 651 468 q 616 732 651 643 q 541 836 590 798 q 428 874 491 874 q 347 857 380 874 q 290 807 313 839 q 233 685 257 764 q 199 450 199 578 q 215 274 199 359 q 260 142 231 189 q 331 68 288 96 q 428 41 374 41 q 519 66 479 41 q 587 132 560 90 q 638 282 625 191 q 651 468 651 373 z "},"1":{"ha":583,"x_min":75,"x_max":528,"o":"m 81 0 l 81 48 q 194 65 167 55 q 228 91 220 76 q 236 163 236 106 l 236 699 q 224 782 236 759 q 185 814 212 804 q 75 823 157 823 l 75 865 q 345 913 210 878 l 371 913 l 371 151 q 382 89 371 109 q 425 59 394 69 q 528 48 455 49 l 528 0 l 81 0 z "},"2":{"ha":861,"x_min":72,"x_max":789,"o":"m 81 0 l 72 90 q 471 416 334 237 q 581 689 581 559 q 513 836 581 786 q 392 873 463 873 q 254 829 308 873 q 201 742 201 786 q 219 692 201 719 q 241 654 237 665 q 245 633 245 644 q 224 586 245 606 q 168 566 202 566 q 106 592 130 566 q 81 667 81 618 q 122 802 81 738 q 241 900 163 865 q 409 934 319 934 q 579 901 503 934 q 696 805 656 868 q 736 671 736 741 q 715 559 736 612 q 627 418 688 489 q 427 239 548 327 q 210 103 345 180 l 528 103 q 631 115 599 103 q 689 160 664 127 q 739 265 715 192 l 789 251 l 728 0 l 81 0 z "},"3":{"ha":861,"x_min":56,"x_max":772,"o":"m 299 473 l 299 527 q 353 526 326 526 q 525 574 469 526 q 581 702 581 623 q 526 837 581 794 q 395 880 472 880 q 277 845 321 880 q 233 770 233 809 q 242 729 233 758 q 252 682 252 699 q 234 640 252 657 q 184 623 216 623 q 126 645 147 623 q 104 705 104 667 q 118 775 104 743 q 158 836 132 808 q 215 885 183 865 q 301 920 248 905 q 416 935 354 935 q 571 907 498 935 q 648 861 616 889 q 700 793 680 832 q 720 709 720 754 q 671 584 720 639 q 508 503 621 530 q 711 420 650 483 q 772 266 772 357 q 725 119 772 184 q 589 16 677 53 q 393 -21 500 -21 q 213 8 292 -21 q 95 88 134 37 q 56 191 56 140 q 81 254 56 229 q 142 280 106 280 q 195 261 175 280 q 216 218 216 242 q 206 172 216 206 q 201 146 201 153 q 220 99 201 120 q 283 56 245 68 q 389 39 334 39 q 525 67 475 39 q 597 147 574 96 q 619 258 619 199 q 598 368 619 317 q 557 427 583 406 q 486 463 531 449 q 385 476 441 476 q 299 473 358 476 z "},"4":{"ha":824,"x_min":15,"x_max":790,"o":"m 460 251 l 44 251 l 15 307 q 237 598 95 403 q 460 921 380 794 l 592 921 l 592 328 l 790 328 l 758 251 l 592 251 l 592 141 q 599 90 592 105 q 628 63 606 75 q 724 39 659 47 l 724 0 l 332 0 l 332 39 q 435 75 410 50 q 460 142 460 100 l 460 251 m 460 328 l 460 810 q 110 328 250 507 l 460 328 z "},"5":{"ha":861,"x_min":59,"x_max":763,"o":"m 113 439 l 119 923 l 513 923 q 586 935 562 923 q 623 976 610 947 l 677 976 l 651 817 l 199 817 l 196 545 q 418 629 286 629 q 592 592 509 629 q 719 484 675 555 q 763 319 763 413 q 735 179 763 245 q 653 68 707 113 q 528 1 600 24 q 376 -22 456 -22 q 210 6 285 -22 q 97 83 134 35 q 59 181 59 132 q 82 243 59 219 q 142 267 105 267 q 196 248 176 267 q 215 197 215 229 q 210 156 215 182 q 205 121 205 130 q 235 72 205 94 q 363 37 286 37 q 495 70 436 37 q 583 164 554 103 q 612 297 612 225 q 584 434 612 377 q 498 522 556 491 q 377 553 439 553 q 163 421 247 553 l 113 439 z "},"6":{"ha":861,"x_min":66,"x_max":790,"o":"m 216 460 q 322 554 266 525 q 463 584 379 584 q 630 548 553 584 q 748 444 706 512 q 790 292 790 376 q 750 138 790 208 q 625 24 709 68 q 441 -21 541 -21 q 304 2 364 -21 q 200 63 244 26 q 129 144 156 100 q 84 262 102 189 q 66 424 66 334 q 94 638 66 547 q 175 795 121 730 q 301 898 229 861 q 474 934 373 934 q 662 890 582 934 q 732 830 708 864 q 755 760 755 797 q 736 710 755 728 q 688 691 718 691 q 646 703 665 691 q 617 736 627 715 q 606 786 610 751 q 595 833 602 822 q 552 862 585 850 q 473 875 519 875 q 279 767 342 875 q 216 500 216 660 q 216 460 216 486 m 435 515 q 323 487 373 515 q 247 400 274 458 q 220 275 220 342 q 246 155 220 209 q 319 71 271 100 q 429 41 366 41 q 582 101 519 41 q 644 287 644 161 q 620 406 644 352 q 545 487 595 459 q 435 515 495 515 z "},"7":{"ha":671,"x_min":2,"x_max":709,"o":"m 2 688 l 41 921 l 700 921 l 709 834 q 509 554 608 733 q 370 243 410 375 q 327 -1 338 140 l 151 -1 q 186 143 166 82 q 284 368 222 251 q 432 599 346 484 q 614 810 504 694 l 241 810 q 146 800 177 810 q 91 761 116 790 q 49 678 66 732 l 2 688 z "},"8":{"ha":861,"x_min":62,"x_max":792,"o":"m 288 474 q 165 543 205 503 q 110 681 110 597 q 192 862 110 789 q 436 934 275 934 q 670 869 591 934 q 748 713 748 804 q 705 599 748 648 q 553 517 663 550 q 678 465 636 490 q 764 384 735 431 q 792 272 792 336 q 751 129 792 195 q 623 20 710 63 q 414 -23 535 -23 q 154 55 246 -23 q 62 237 62 134 q 94 349 62 297 q 182 436 125 401 q 288 474 223 460 m 487 542 q 615 621 574 572 q 646 713 646 658 q 583 841 646 797 q 439 886 519 886 q 298 842 363 886 q 233 720 233 798 q 249 656 233 681 q 332 592 270 623 q 487 542 395 561 m 353 448 q 224 366 268 422 q 181 235 181 309 q 210 129 181 177 q 296 58 239 81 q 428 35 354 35 q 553 58 495 35 q 643 126 612 81 q 673 229 673 172 q 622 342 673 294 q 353 448 571 390 z "},"9":{"ha":861,"x_min":66,"x_max":789,"o":"m 640 453 q 586 393 614 416 q 498 345 545 361 q 393 330 452 330 q 224 366 302 330 q 106 471 146 402 q 66 622 66 540 q 159 844 66 755 q 407 934 253 934 q 569 905 498 934 q 690 817 640 876 q 765 679 741 757 q 789 488 789 600 q 692 132 789 263 q 382 -21 578 -21 q 233 5 300 -21 q 128 79 166 32 q 100 157 100 116 q 118 201 100 183 q 165 219 136 219 q 225 194 202 219 q 252 115 248 169 q 263 73 253 86 q 307 49 273 59 q 390 39 341 39 q 486 57 445 39 q 554 109 526 76 q 603 193 583 142 q 631 300 623 244 q 640 453 640 355 m 420 398 q 532 426 483 398 q 609 513 582 454 q 635 637 635 571 q 586 800 635 728 q 427 871 536 871 q 318 844 370 871 q 239 761 266 817 q 212 627 212 706 q 237 509 212 563 q 310 426 261 454 q 420 398 359 398 z "},"\u0000":{"ha":0,"x_min":0,"x_max":0,"o":""},"\b":{"ha":0,"x_min":0,"x_max":0,"o":""},"\u001d":{"ha":0,"x_min":0,"x_max":0,"o":""},"\r":{"ha":0,"x_min":0,"x_max":0,"o":""},"\t":{"ha":444,"x_min":0,"x_max":0,"o":""}," ":{"ha":444,"x_min":0,"x_max":0,"o":""},"A":{"ha":1550,"x_min":-16,"x_max":1618,"o":"m 873 347 q 711 97 789 190 q 530 -51 633 4 q 313 -105 427 -105 q 75 -20 167 -105 q -16 184 -16 65 q 24 343 -16 267 q 135 460 65 419 q 285 501 205 501 q 396 472 360 501 q 433 403 433 443 q 408 346 433 370 q 346 321 382 321 q 314 327 328 321 q 278 351 300 332 q 240 375 255 369 q 210 382 225 382 q 141 359 176 382 q 83 287 106 336 q 60 190 60 238 q 111 52 60 113 q 303 -32 180 -32 q 446 -6 377 -32 q 574 68 514 20 q 701 208 635 117 q 882 523 789 330 q 1047 930 975 717 l 1174 930 l 1461 198 q 1503 105 1486 136 q 1529 73 1514 86 q 1565 52 1544 60 q 1618 40 1586 43 l 1618 0 l 1234 0 l 1234 40 q 1321 67 1301 50 q 1341 107 1341 85 q 1326 170 1341 130 l 1259 347 l 873 347 m 1082 806 q 902 402 1030 665 l 1234 402 l 1082 806 z "},"B":{"ha":1202,"x_min":-35,"x_max":1167,"o":"m 908 504 q 1004 481 974 492 q 1089 437 1053 465 q 1146 367 1125 408 q 1167 281 1167 325 q 1147 184 1167 234 q 1094 98 1127 134 q 1034 54 1074 77 q 945 18 993 31 q 767 0 873 0 l 281 0 l 281 40 l 305 44 q 363 67 344 52 q 394 113 382 83 q 405 197 405 143 l 405 770 q 398 833 405 816 q 375 860 391 851 q 323 869 359 869 q 155 847 213 869 q 68 790 96 825 q 41 718 41 756 q 57 666 41 686 q 91 647 73 647 q 102 650 97 647 q 125 670 105 652 q 172 689 144 689 q 221 669 201 689 q 242 622 242 650 q 211 557 242 585 q 129 529 180 529 q 14 578 62 529 q -35 697 -35 627 q -16 778 -35 739 q 38 851 2 818 q 120 902 75 884 q 238 927 165 920 q 363 930 276 930 l 753 930 q 962 904 894 930 q 1065 824 1030 877 q 1100 708 1100 771 q 1085 631 1100 665 q 1048 575 1070 596 q 993 537 1026 554 q 908 504 968 525 m 541 533 l 691 533 q 904 577 850 533 q 959 707 959 622 q 933 801 959 760 q 857 861 907 842 q 713 881 808 881 q 588 867 627 881 q 551 836 562 857 q 541 762 541 814 l 541 533 m 541 477 l 541 210 q 551 109 541 132 q 590 73 562 84 q 719 56 634 56 q 840 67 784 56 q 932 104 897 79 q 991 174 967 130 q 1015 277 1015 219 q 943 431 1015 385 q 691 477 871 477 l 541 477 z "},"C":{"ha":986,"x_min":44,"x_max":957,"o":"m 822 981 l 911 675 l 864 662 q 701 869 781 808 q 532 929 621 929 q 425 905 476 929 q 331 833 374 880 q 276 749 301 800 q 235 635 252 699 q 207 410 207 524 q 247 156 207 277 q 364 -23 287 35 q 547 -82 441 -82 q 721 -40 640 -82 q 843 70 803 2 q 883 210 883 137 q 859 321 883 267 q 794 400 835 375 q 707 426 753 426 q 627 400 657 426 q 600 341 608 385 q 571 279 592 297 q 520 261 551 261 q 466 283 488 261 q 444 337 444 306 q 470 411 444 370 q 551 475 497 452 q 678 498 605 498 q 821 467 761 498 q 919 373 880 437 q 957 223 957 309 q 905 39 957 125 q 756 -95 854 -47 q 539 -142 658 -142 q 326 -93 420 -142 q 191 12 254 -56 q 92 156 127 79 q 44 400 44 260 q 110 701 44 568 q 293 911 176 833 q 529 988 410 988 q 753 919 647 988 l 777 981 l 822 981 z "},"D":{"ha":1295,"x_min":-47,"x_max":1251,"o":"m 281 0 l 281 40 l 304 44 q 354 61 338 50 q 382 91 370 71 q 399 132 395 111 q 405 197 405 153 l 405 734 q 399 817 405 793 q 374 850 393 840 q 283 869 343 869 q 82 811 159 869 q 28 714 28 770 q 46 659 28 680 q 87 638 65 638 q 119 657 103 638 q 147 684 135 677 q 186 694 166 694 q 237 674 216 694 q 258 623 258 653 q 225 552 258 582 q 136 522 193 522 q 6 574 59 522 q -47 699 -47 626 q 1 825 -47 764 q 137 912 49 886 q 390 930 199 930 l 696 930 q 1017 873 903 930 q 1191 701 1131 816 q 1251 460 1251 586 q 1219 282 1251 369 q 1141 145 1187 195 q 1030 62 1095 96 q 897 14 966 28 q 696 0 827 0 l 281 0 m 541 177 q 546 109 541 125 q 566 82 552 92 q 620 64 579 72 q 707 57 660 57 q 920 107 830 57 q 1054 255 1010 157 q 1098 468 1098 353 q 1083 597 1098 536 q 1038 710 1067 658 q 964 800 1008 763 q 852 857 920 836 q 701 879 784 879 q 591 863 637 879 q 551 835 562 854 q 541 749 541 816 l 541 177 z "},"E":{"ha":1190,"x_min":-39,"x_max":1183,"o":"m 281 0 l 281 40 l 304 44 q 363 67 343 52 q 394 113 382 83 q 405 197 405 143 l 405 734 q 399 822 405 802 q 373 852 392 842 q 283 869 340 869 q 106 822 167 869 q 45 721 45 774 q 63 672 45 691 q 104 653 81 653 q 118 656 112 653 q 144 676 121 658 q 197 694 167 694 q 249 674 228 694 q 269 629 269 654 q 236 564 269 593 q 144 534 202 534 q 52 555 95 534 q -15 615 9 576 q -39 701 -39 654 q 8 825 -39 764 q 141 912 56 886 q 390 930 202 930 l 1046 930 l 1141 686 l 1096 667 q 991 778 1038 741 q 863 849 931 826 q 696 872 795 872 q 614 865 652 872 q 570 846 586 859 q 548 816 555 833 q 541 759 541 799 l 541 530 l 638 530 q 731 546 702 530 q 776 593 761 562 q 802 700 791 624 l 849 700 l 849 292 l 802 292 q 773 399 795 361 q 719 452 751 437 q 635 467 687 467 l 541 467 l 541 179 q 551 106 541 128 q 589 74 562 85 q 690 58 628 58 q 883 89 804 58 q 1027 179 962 121 q 1141 310 1074 221 l 1183 292 l 1059 0 l 281 0 z "},"F":{"ha":1093,"x_min":-16,"x_max":1141,"o":"m 1053 930 l 1141 697 l 1098 676 q 1011 768 1053 733 q 922 825 970 802 q 819 861 874 848 q 702 873 764 873 q 591 859 631 873 q 553 827 564 850 q 541 739 541 804 l 541 523 l 637 523 q 735 538 706 523 q 780 585 764 553 q 805 697 796 616 l 847 697 l 847 292 l 805 292 q 780 397 795 365 q 730 448 765 429 q 637 467 694 467 l 541 467 l 541 197 q 551 112 541 140 q 587 66 562 84 q 641 44 612 47 l 677 40 l 677 0 l 281 0 l 281 40 l 305 44 q 363 67 344 52 q 394 113 383 83 q 405 197 405 143 l 405 734 q 399 823 405 803 q 372 852 392 842 q 286 869 339 869 q 118 819 178 869 q 59 705 59 769 q 78 643 59 667 q 118 620 98 620 q 130 623 125 620 q 152 641 132 624 q 199 658 172 658 q 249 638 229 658 q 270 591 270 618 q 239 526 270 554 q 156 498 208 498 q 35 551 86 498 q -16 686 -16 605 q 16 800 -16 747 q 97 882 47 852 q 210 921 146 912 q 391 930 274 930 l 1053 930 z "},"G":{"ha":1077,"x_min":44,"x_max":1080,"o":"m 819 939 l 856 939 l 942 640 l 890 625 q 773 773 824 722 q 660 855 723 825 q 530 886 596 886 q 362 833 437 886 q 247 681 287 780 q 207 461 207 582 q 252 239 207 335 q 378 94 296 142 q 554 45 460 45 q 747 104 663 45 q 831 288 831 163 q 818 372 831 339 q 779 421 805 406 q 695 443 752 436 l 695 483 l 1080 483 l 1080 443 l 1055 439 q 989 408 1009 430 q 954 291 954 369 q 958 168 954 288 q 963 37 963 49 q 909 -166 963 -74 q 740 -312 854 -258 q 488 -366 626 -366 q 295 -336 389 -366 q 155 -252 202 -305 q 124 -186 124 -218 q 148 -133 124 -156 q 207 -111 172 -111 q 245 -119 229 -111 q 271 -143 261 -128 q 285 -176 276 -151 q 308 -226 298 -212 q 350 -266 324 -249 q 417 -296 375 -283 q 506 -309 458 -309 q 638 -284 576 -309 q 740 -227 700 -260 q 803 -151 781 -193 q 831 -48 825 -109 q 835 98 833 -22 q 693 6 764 35 q 532 -23 622 -23 q 291 39 408 -23 q 109 215 173 102 q 44 468 44 329 q 107 716 44 604 q 285 891 170 827 q 519 954 400 954 q 659 932 590 954 q 790 865 728 909 l 819 939 z "},"H":{"ha":1318,"x_min":-27,"x_max":1292,"o":"m 541 527 l 1032 527 l 1032 734 q 1023 817 1032 789 q 991 862 1013 845 q 932 886 968 880 l 909 890 l 909 930 l 1292 930 l 1292 890 l 1268 886 q 1219 870 1236 880 q 1190 840 1202 859 q 1173 799 1178 820 q 1168 734 1168 777 l 1168 197 q 1178 114 1168 142 q 1210 68 1187 85 q 1268 44 1232 51 l 1292 40 l 1292 0 l 909 0 l 909 40 l 932 44 q 982 61 965 50 q 1010 91 998 71 q 1027 132 1023 111 q 1032 197 1032 153 l 1032 471 l 541 471 l 541 197 q 551 113 541 142 q 583 68 561 85 q 641 44 605 51 l 665 40 l 665 0 l 281 0 l 281 40 l 305 44 q 363 67 344 52 q 394 113 383 83 q 406 197 406 143 l 406 734 q 399 822 406 802 q 374 852 393 842 q 283 869 340 869 q 111 819 172 869 q 50 709 50 769 q 72 647 50 671 q 123 623 95 623 q 142 627 134 623 q 166 652 145 629 q 218 675 187 675 q 267 654 246 675 q 288 606 288 633 q 254 540 288 569 q 157 511 219 511 q 26 565 80 511 q -27 696 -27 619 q 20 825 -27 764 q 151 912 67 886 q 391 930 210 930 l 665 930 l 665 890 l 641 886 q 583 864 602 880 q 552 818 564 848 q 541 734 541 787 l 541 527 z "},"I":{"ha":690,"x_min":-7,"x_max":665,"o":"m 665 930 l 665 890 l 641 886 q 591 870 608 880 q 563 840 575 860 q 546 799 551 820 q 541 734 541 777 l 541 197 q 550 114 541 142 q 582 68 560 85 q 641 44 604 51 l 665 40 l 665 0 l 281 0 l 281 40 l 305 44 q 354 61 338 50 q 383 91 370 71 q 400 132 395 111 q 405 197 405 153 l 405 734 q 398 823 405 803 q 372 852 392 842 q 286 869 339 869 q 124 823 180 869 q 68 719 68 777 q 84 667 68 686 q 118 647 100 647 q 130 650 124 647 q 152 670 132 652 q 199 689 172 689 q 249 669 228 689 q 269 622 269 650 q 238 557 269 585 q 156 529 208 529 q 41 578 89 529 q -7 699 -7 627 q 22 803 -7 753 q 101 884 52 853 q 205 922 150 914 q 390 930 260 930 l 665 930 z "},"J":{"ha":795,"x_min":-14,"x_max":775,"o":"m 775 930 l 775 890 l 751 886 q 693 864 713 880 q 663 818 674 848 q 651 734 651 787 l 651 300 q 638 109 651 161 q 582 8 625 55 q 466 -65 538 -38 q 316 -92 393 -92 q 141 -54 218 -92 q 25 47 64 -17 q -14 183 -14 111 q 19 297 -14 256 q 94 338 53 338 q 150 316 127 338 q 172 266 172 295 q 162 229 172 246 q 128 195 151 212 q 98 165 105 178 q 86 129 86 148 q 112 58 86 97 q 187 -3 138 18 q 298 -24 235 -24 q 415 4 366 -24 q 485 74 464 32 q 511 173 507 115 q 515 370 515 231 l 515 734 q 509 824 515 804 q 482 852 503 843 q 376 869 444 869 q 211 823 268 869 q 155 720 155 777 q 170 669 155 688 q 202 650 185 650 q 212 653 208 650 q 225 663 214 654 q 253 682 242 677 q 283 689 267 689 q 335 669 313 689 q 357 622 357 649 q 325 557 357 585 q 239 529 293 529 q 124 578 172 529 q 76 699 76 627 q 121 827 76 767 q 245 913 165 887 q 473 930 301 930 l 775 930 z "},"K":{"ha":1201,"x_min":2,"x_max":1287,"o":"m 820 612 l 1085 193 q 1179 78 1139 106 q 1287 40 1218 50 l 1287 0 l 862 0 l 862 40 q 924 49 910 45 q 959 67 948 56 q 969 96 969 79 q 964 127 969 112 q 938 176 958 143 l 722 527 l 541 381 l 541 197 q 561 93 541 124 q 645 44 587 51 l 683 40 l 683 0 l 281 0 l 281 40 l 305 44 q 363 67 344 52 q 394 113 383 83 q 406 197 406 143 l 406 734 q 394 825 406 801 q 361 854 385 844 q 275 869 329 869 q 129 824 181 869 q 77 721 77 779 q 93 667 77 686 q 127 647 110 647 q 139 650 134 647 q 161 670 142 652 q 209 689 181 689 q 258 669 237 689 q 279 622 279 650 q 248 557 279 585 q 165 529 217 529 q 50 578 98 529 q 2 699 2 627 q 47 827 2 767 q 172 913 92 887 q 399 930 228 930 l 683 930 l 683 890 l 647 886 q 595 872 612 882 q 564 841 577 861 q 546 799 551 821 q 541 734 541 777 l 541 465 l 798 685 q 908 788 894 768 q 923 831 923 808 q 899 875 923 861 q 829 890 883 885 l 829 930 l 1223 930 l 1223 890 q 1135 861 1169 880 q 991 760 1065 825 l 820 612 z "},"L":{"ha":1062,"x_min":-7,"x_max":1125,"o":"m 1125 292 l 1017 0 l 281 0 l 281 40 l 305 44 q 354 61 338 50 q 383 91 370 71 q 400 132 395 111 q 405 197 405 153 l 405 734 q 398 828 405 807 q 372 861 392 850 q 286 878 340 878 q 125 830 182 878 q 68 718 68 781 q 85 658 68 680 q 118 636 102 636 q 131 639 125 636 q 156 660 134 641 q 209 678 179 678 q 262 658 241 678 q 283 611 283 638 q 249 545 283 574 q 157 515 215 515 q 42 567 91 515 q -7 697 -7 619 q 38 828 -7 768 q 163 913 83 888 q 390 930 219 930 l 677 930 l 677 890 l 641 886 q 583 864 606 882 q 549 810 560 845 q 541 734 541 785 l 541 168 q 551 95 541 115 q 585 65 562 74 q 671 52 621 52 q 834 83 760 52 q 973 172 909 113 q 1087 310 1021 216 l 1125 292 z "},"M":{"ha":1882,"x_min":-16,"x_max":1847,"o":"m 1013 930 l 1261 174 l 1564 930 l 1847 930 l 1847 890 q 1787 872 1803 880 q 1758 845 1771 863 q 1739 803 1745 827 q 1733 734 1733 779 l 1733 197 q 1739 124 1733 149 q 1760 82 1746 99 q 1795 56 1774 66 q 1847 40 1807 50 l 1847 0 l 1474 0 l 1474 40 l 1498 44 q 1548 60 1531 50 q 1576 91 1564 71 q 1593 132 1588 111 q 1598 197 1598 153 l 1598 834 l 1261 0 l 1184 0 l 924 783 q 904 366 924 493 q 808 79 876 193 q 622 -98 741 -34 q 357 -163 503 -163 q 71 -60 175 -163 q -16 146 -16 26 q 22 288 -16 222 q 130 390 60 353 q 273 427 199 427 q 406 388 353 427 q 443 326 443 360 q 420 272 443 294 q 367 249 398 249 q 329 257 345 249 q 291 289 313 265 q 254 320 270 313 q 213 328 237 328 q 143 308 177 328 q 89 243 110 287 q 68 144 68 199 q 152 -27 68 37 q 368 -91 235 -91 q 545 -55 467 -91 q 677 37 623 -19 q 763 154 732 92 q 830 368 805 235 q 861 720 861 532 q 844 850 861 829 q 759 870 827 870 q 542 825 604 870 q 480 719 480 780 q 496 663 480 682 q 534 645 511 645 q 574 661 551 645 q 606 681 597 677 q 630 686 618 686 q 680 665 659 686 q 701 613 701 644 q 669 553 701 580 q 581 526 637 526 q 488 550 532 526 q 421 616 445 573 q 397 705 397 659 q 417 786 397 746 q 477 859 437 827 q 576 909 518 892 q 679 926 615 921 q 871 930 743 930 l 1013 930 z "},"N":{"ha":1301,"x_min":-7,"x_max":1652,"o":"m 1143 63 q 1260 -78 1223 -43 q 1348 -134 1297 -113 q 1449 -155 1399 -155 q 1488 -144 1474 -155 q 1510 -108 1502 -134 q 1539 -58 1521 -72 q 1584 -43 1557 -43 q 1633 -62 1614 -43 q 1652 -110 1652 -80 q 1619 -178 1652 -152 q 1491 -211 1576 -211 q 1279 -165 1388 -211 q 1088 -42 1170 -119 q 843 278 986 53 q 546 795 700 504 l 546 197 q 556 112 546 140 q 591 66 566 84 q 646 44 616 47 l 682 40 l 682 0 l 345 0 l 345 40 l 368 44 q 418 61 401 50 q 446 91 434 71 q 463 132 458 111 q 469 197 469 153 l 469 734 q 466 798 469 785 q 452 834 463 821 q 416 857 441 848 q 329 869 382 869 q 194 849 255 869 q 102 793 132 829 q 72 720 72 758 q 96 659 72 684 q 148 633 119 633 q 165 637 159 633 q 188 657 169 638 q 237 676 207 676 q 288 657 267 676 q 309 610 309 637 q 277 540 309 570 q 189 511 245 511 q 54 563 115 511 q -7 699 -7 614 q 23 804 -7 753 q 108 886 54 855 q 231 923 161 916 q 454 930 301 930 l 631 930 q 718 758 665 857 q 909 424 814 583 q 1066 175 975 313 l 1066 734 q 1056 819 1066 791 q 1020 865 1045 847 q 966 886 995 883 l 929 890 l 929 930 l 1267 930 l 1267 890 l 1243 886 q 1194 870 1210 880 q 1165 840 1177 860 q 1148 799 1153 820 q 1143 734 1143 777 l 1143 63 z "},"O":{"ha":1005,"x_min":44,"x_max":961,"o":"m 336 953 l 355 926 q 239 717 278 838 q 207 486 207 621 q 298 136 207 249 q 499 45 371 45 q 715 145 632 45 q 798 469 798 245 q 781 664 798 567 q 726 829 764 761 q 662 899 702 873 q 580 925 623 925 q 499 901 539 925 q 434 823 459 876 q 408 705 408 770 q 439 589 408 634 q 483 563 457 563 q 500 567 493 563 q 523 587 505 568 q 565 605 541 605 q 610 587 592 605 q 628 543 628 570 q 599 490 628 513 q 517 466 570 466 q 388 528 441 466 q 334 699 334 589 q 368 846 334 780 q 460 948 401 912 q 593 983 519 983 q 739 947 674 983 q 848 852 804 910 q 920 726 893 794 q 961 494 961 620 q 902 225 961 346 q 732 41 843 105 q 485 -23 622 -23 q 301 14 387 -23 q 150 130 216 52 q 72 274 100 189 q 44 458 44 359 q 114 739 44 621 q 336 953 183 857 z "},"P":{"ha":1049,"x_min":2,"x_max":1080,"o":"m 541 407 l 541 197 q 551 112 541 140 q 587 66 562 84 q 641 44 612 47 l 678 40 l 678 0 l 281 0 l 281 40 l 305 44 q 363 67 344 52 q 394 113 383 83 q 406 197 406 143 l 406 734 q 399 823 406 804 q 372 852 392 843 q 290 869 338 869 q 142 821 198 869 q 86 714 86 774 q 101 661 86 680 q 134 642 117 642 q 149 645 142 642 q 163 659 153 647 q 190 682 180 677 q 221 689 204 689 q 273 669 252 689 q 294 620 294 649 q 263 555 294 583 q 178 528 232 528 q 57 574 111 528 q 2 698 2 621 q 35 806 2 753 q 118 886 68 859 q 225 922 168 913 q 391 930 283 930 l 748 930 q 931 897 857 930 q 1043 803 1006 863 q 1080 673 1080 743 q 1050 552 1080 609 q 992 481 1027 509 q 896 430 958 453 q 747 407 835 407 l 541 407 m 541 463 l 726 463 q 831 479 792 463 q 885 515 857 489 q 928 573 914 541 q 946 668 946 616 q 887 821 946 765 q 711 878 829 878 q 594 867 641 878 q 552 844 562 859 q 541 785 541 829 l 541 463 z "},"Q":{"ha":1037,"x_min":44,"x_max":994,"o":"m 772 50 q 702 11 726 22 q 650 -7 677 0 q 593 -19 623 -15 q 528 -23 563 -23 q 281 40 392 -23 q 107 217 170 102 q 44 463 44 332 q 107 711 44 595 q 280 891 170 827 q 522 954 391 954 q 717 915 632 954 q 859 815 802 875 q 949 680 916 755 q 994 462 994 581 q 852 111 994 251 q 915 30 896 69 q 934 -52 934 -9 q 902 -164 934 -109 q 811 -258 871 -220 q 671 -315 751 -297 q 509 -333 591 -333 q 338 -315 418 -333 q 205 -267 258 -296 q 129 -204 153 -237 q 105 -143 105 -171 q 125 -93 105 -113 q 181 -73 146 -73 q 231 -88 210 -73 q 258 -121 251 -102 q 265 -166 262 -130 q 277 -205 267 -191 q 318 -235 288 -218 q 395 -262 349 -252 q 503 -273 442 -273 q 745 -203 658 -273 q 810 -65 810 -151 q 772 50 810 5 m 420 62 q 399 122 399 93 q 415 171 399 147 q 471 212 431 195 q 566 229 510 229 q 760 179 665 229 q 813 301 797 239 q 830 455 830 363 q 740 778 830 670 q 519 886 649 886 q 365 840 437 886 q 250 698 292 793 q 207 460 207 602 q 269 196 207 298 q 420 62 331 94 m 698 106 q 559 142 635 142 q 488 126 509 142 q 467 91 467 111 q 482 66 467 76 q 555 51 505 51 q 698 106 627 51 z "},"R":{"ha":1173,"x_min":-21,"x_max":1245,"o":"m 871 452 l 1099 131 q 1168 66 1128 90 q 1245 40 1197 49 l 1245 0 l 1030 0 l 725 439 l 541 439 l 541 197 q 551 112 541 140 q 587 66 562 84 q 641 44 612 47 l 677 40 l 677 0 l 269 0 l 269 40 l 292 44 q 348 60 331 52 q 379 89 365 69 q 399 131 393 109 q 405 197 405 153 l 405 734 q 399 822 405 802 q 374 852 393 842 q 283 869 340 869 q 112 826 166 869 q 58 726 58 783 q 77 668 58 689 q 123 646 96 646 q 139 650 132 646 q 153 663 142 651 q 180 684 168 678 q 217 692 198 692 q 268 673 248 692 q 288 625 288 653 q 253 558 288 587 q 157 529 218 529 q 30 579 81 529 q -21 702 -21 629 q 23 828 -21 770 q 150 912 68 887 q 391 930 212 930 l 772 930 q 976 904 905 930 q 1086 822 1048 877 q 1124 695 1124 767 q 1101 591 1124 638 q 1042 516 1078 544 q 971 474 1006 488 q 871 452 936 461 m 541 495 l 742 495 q 841 506 803 495 q 910 539 879 516 q 961 603 941 563 q 980 692 980 643 q 922 828 980 778 q 731 878 864 878 q 567 851 608 878 q 541 794 541 834 l 541 495 z "},"S":{"ha":861,"x_min":21,"x_max":840,"o":"m 707 987 l 768 722 l 724 714 q 604 861 649 817 q 509 929 559 905 q 394 952 458 952 q 253 907 304 952 q 203 796 203 861 q 219 730 203 758 q 265 683 236 703 q 384 622 295 663 l 559 540 q 709 462 663 492 q 784 395 754 431 q 823 323 806 369 q 840 228 840 277 q 791 59 840 147 q 640 -77 741 -28 q 414 -126 538 -126 q 248 -103 323 -126 q 123 -45 172 -80 q 47 36 73 -11 q 21 140 21 82 q 52 253 21 200 q 141 334 83 306 q 266 363 199 363 q 372 342 326 363 q 438 292 418 322 q 458 232 458 262 q 437 179 458 200 q 381 157 416 157 q 331 172 351 157 q 293 223 310 187 q 264 268 277 258 q 224 277 251 277 q 136 239 172 277 q 99 143 99 201 q 192 -7 99 50 q 412 -64 284 -64 q 636 3 551 -64 q 722 176 722 70 q 678 304 722 251 q 507 414 635 357 l 348 484 q 197 559 237 534 q 112 640 139 597 q 85 745 85 684 q 169 930 85 854 q 395 1007 252 1007 q 494 996 451 1007 q 572 968 538 985 q 641 924 599 955 l 668 989 l 707 987 z "},"T":{"ha":905,"x_min":-16,"x_max":1076,"o":"m 583 806 l 583 197 q 594 111 583 138 q 631 65 604 83 q 684 44 657 47 l 729 40 l 729 0 l 311 0 l 311 40 l 348 44 q 405 67 382 48 q 439 119 428 85 q 448 197 448 145 l 448 831 q 321 853 359 849 q 249 858 283 858 q 103 814 155 858 q 52 707 52 770 q 80 632 52 660 q 151 604 108 604 q 180 611 171 604 q 199 641 187 616 q 214 670 210 665 q 238 689 224 682 q 272 696 252 696 q 326 677 306 696 q 346 629 346 659 q 329 573 346 600 q 275 531 311 547 q 195 515 239 515 q 90 538 143 515 q 11 606 37 562 q -16 706 -16 650 q 100 899 -16 824 q 317 960 193 960 q 429 952 363 960 q 568 929 494 945 q 683 900 595 924 q 787 874 770 877 q 850 869 818 869 q 963 891 916 869 q 1044 954 1009 913 l 1076 927 q 1013 863 1044 885 q 902 811 971 832 q 749 789 833 789 q 583 806 685 789 z "},"U":{"ha":1331,"x_min":-7,"x_max":1314,"o":"m 977 930 l 1314 930 l 1314 890 l 1291 886 q 1232 864 1252 880 q 1201 818 1213 848 q 1190 734 1190 787 l 1190 279 q 1174 152 1190 197 q 1123 71 1157 106 q 1055 19 1090 37 q 972 -9 1020 1 q 827 -23 908 -23 q 622 1 695 -23 q 525 61 568 19 q 461 148 481 102 q 441 275 441 194 l 441 734 q 439 802 441 787 q 428 837 436 825 q 398 857 419 849 q 319 869 368 869 q 141 827 214 869 q 68 718 68 785 q 87 662 68 684 q 125 640 106 640 q 140 644 133 640 q 157 660 144 646 q 189 687 174 680 q 222 694 203 694 q 272 675 253 694 q 292 626 292 656 q 257 555 292 585 q 163 524 222 524 q 78 546 118 524 q 16 608 39 567 q -7 698 -7 649 q 41 827 -7 767 q 178 913 90 888 q 427 930 239 930 l 714 930 l 714 890 l 677 886 q 620 864 643 882 q 585 811 597 845 q 577 734 577 785 l 577 368 q 591 191 577 242 q 640 109 606 140 q 726 61 675 77 q 841 45 777 45 q 996 72 933 45 q 1068 129 1044 93 q 1103 212 1093 164 q 1113 372 1113 259 l 1113 734 q 1103 819 1113 791 q 1067 865 1093 847 q 1013 886 1042 883 l 977 890 l 977 930 z "},"V":{"ha":1203,"x_min":-7,"x_max":1248,"o":"m 772 145 l 1006 747 q 1017 807 1017 777 q 986 869 1017 848 q 899 890 964 883 l 899 930 l 1248 930 l 1248 890 q 1164 867 1188 880 q 1120 827 1139 854 q 1072 726 1101 800 l 783 0 l 694 0 l 397 747 q 364 819 375 802 q 319 863 346 847 q 252 878 292 878 q 165 858 206 878 q 101 802 124 838 q 78 732 78 766 q 92 690 78 707 q 124 674 106 674 q 160 688 139 674 q 189 705 180 702 q 216 709 201 709 q 268 688 246 709 q 289 635 289 666 q 256 575 289 602 q 162 549 224 549 q 41 595 90 549 q -7 707 -7 642 q 16 806 -7 761 q 67 874 39 851 q 147 914 96 898 q 260 930 198 930 l 633 930 l 633 890 q 561 881 578 886 q 532 861 543 875 q 521 829 521 846 q 533 772 521 805 l 772 145 z "},"W":{"ha":1573,"x_min":-7,"x_max":1649,"o":"m 718 169 l 899 704 q 832 843 868 807 q 732 890 797 879 l 732 930 l 1108 930 l 1108 890 q 1044 878 1055 882 q 1019 860 1027 871 q 1009 822 1009 844 q 1015 793 1009 809 l 1219 170 l 1413 755 q 1421 803 1421 781 q 1409 846 1421 827 q 1374 876 1396 865 q 1308 890 1357 883 l 1308 930 l 1649 930 l 1649 890 q 1577 878 1605 890 q 1532 841 1549 865 q 1489 738 1515 816 l 1232 0 l 1143 0 l 936 597 l 739 0 l 648 0 l 393 738 q 340 846 363 823 q 252 878 308 878 q 131 837 184 878 q 78 726 78 795 q 92 672 78 689 q 124 656 105 656 q 160 670 139 656 q 189 687 180 684 q 216 691 201 691 q 268 669 246 691 q 289 617 289 648 q 256 557 289 583 q 161 531 224 531 q 43 583 93 531 q -7 709 -7 634 q 6 782 -7 745 q 42 847 20 819 q 92 889 65 874 q 178 920 130 909 q 297 930 225 930 l 605 930 l 605 890 q 525 869 543 885 q 507 825 507 854 q 515 784 507 808 l 718 169 z "},"X":{"ha":1257,"x_min":-16,"x_max":1316,"o":"m 769 405 l 694 313 q 540 136 601 199 q 393 5 452 45 q 272 -58 335 -36 q 153 -79 208 -79 q 27 -46 70 -79 q -16 28 -16 -13 q 4 75 -16 56 q 55 95 24 95 q 95 85 77 95 q 136 49 114 75 q 173 16 159 24 q 207 9 187 9 q 290 28 250 9 q 454 150 364 64 q 629 340 544 237 l 728 460 l 479 782 q 414 846 444 828 q 351 863 384 863 q 275 846 311 863 q 220 798 239 829 q 201 734 201 767 q 212 695 201 709 q 237 681 224 681 q 263 688 246 681 q 309 701 289 701 q 362 679 340 701 q 385 630 385 657 q 356 573 385 600 q 283 547 327 547 q 203 569 243 547 q 141 632 163 591 q 118 718 118 673 q 153 827 118 774 q 248 905 189 880 q 435 930 307 930 l 729 930 l 729 890 q 663 881 677 885 q 634 863 644 875 q 625 838 625 851 q 648 781 625 811 l 818 560 l 977 766 q 1000 827 1000 796 q 979 872 1000 857 q 910 890 958 887 l 910 930 l 1280 930 l 1280 890 q 1193 868 1217 878 q 1143 837 1169 858 q 1037 726 1097 799 l 856 507 l 1120 165 q 1206 76 1173 96 q 1316 40 1249 50 l 1316 0 l 867 0 l 867 40 q 936 50 925 47 q 968 69 956 56 q 979 96 979 82 q 973 127 979 112 q 946 170 966 143 l 769 405 z "},"Y":{"ha":1196,"x_min":-7,"x_max":1500,"o":"m 780 418 l 780 197 q 790 112 780 140 q 825 66 800 84 q 880 44 850 47 l 917 40 l 917 0 l 492 0 l 492 40 l 538 44 q 591 64 566 47 q 626 112 615 81 q 637 197 637 142 l 637 387 l 412 752 q 370 812 387 794 q 321 851 347 838 q 260 863 296 863 q 162 845 207 863 q 95 795 117 826 q 73 732 73 764 q 90 680 73 701 q 125 659 108 659 q 162 675 140 659 q 196 696 184 691 q 222 701 208 701 q 272 679 251 701 q 293 630 293 658 q 264 573 293 599 q 188 547 236 547 q 56 590 119 547 q -7 718 -7 633 q 33 830 -7 779 q 142 906 73 881 q 335 930 212 930 l 637 930 l 637 890 q 551 868 571 880 q 532 830 532 856 q 551 783 532 813 l 745 474 q 930 755 860 656 q 1151 1031 1057 936 q 1271 1121 1214 1096 q 1375 1146 1328 1146 q 1466 1116 1432 1146 q 1500 1050 1500 1086 q 1476 996 1500 1020 q 1419 972 1451 972 q 1383 979 1402 972 q 1351 1001 1371 985 q 1322 1021 1330 1017 q 1305 1024 1315 1024 q 1274 1016 1291 1024 q 1168 935 1225 992 q 1001 732 1112 877 q 871 549 954 671 l 805 451 q 780 418 802 448 z "},"Z":{"ha":940,"x_min":16,"x_max":938,"o":"m 16 29 l 640 859 q 498 873 566 873 q 371 859 425 873 q 270 818 316 845 q 190 757 223 790 q 114 667 156 724 l 68 684 l 151 930 l 798 930 l 825 880 l 220 88 q 288 90 267 90 q 414 77 357 90 q 583 17 472 63 q 669 -15 638 -7 q 713 -20 692 -20 q 817 20 775 -20 q 859 119 859 61 q 840 184 859 161 q 795 208 821 208 q 775 203 784 208 q 752 183 766 199 q 688 148 719 148 q 634 169 656 148 q 612 221 612 190 q 648 289 612 258 q 746 319 684 319 q 883 266 828 319 q 938 134 938 212 q 855 -32 938 41 q 640 -105 772 -105 q 526 -90 583 -105 q 345 -19 469 -74 q 220 31 260 19 q 165 40 191 40 q 111 31 136 40 q 57 0 85 21 l 16 29 z "},"=":{"ha":833,"x_min":41,"x_max":717,"o":"m 638 739 q 582 762 605 739 q 559 818 559 785 q 583 874 559 851 q 638 897 606 897 q 694 874 671 897 q 717 818 717 851 q 694 762 717 785 q 638 739 671 739 m 141 795 q 164 850 141 828 q 218 873 186 873 q 273 850 250 873 q 296 795 296 827 q 273 741 296 764 q 218 718 250 718 q 163 741 186 718 q 141 795 141 764 m 458 596 l 458 632 q 657 664 551 639 l 699 664 l 699 -122 q 682 -212 699 -176 q 625 -279 664 -248 q 530 -329 586 -311 q 408 -347 473 -347 q 311 -324 339 -347 q 283 -268 283 -301 q 299 -225 283 -241 q 342 -209 315 -209 q 373 -216 361 -209 q 405 -247 386 -223 q 435 -277 424 -271 q 477 -286 453 -286 q 523 -275 503 -286 q 552 -250 543 -264 q 568 -206 562 -235 q 574 -122 574 -177 l 574 486 q 553 564 574 543 q 458 596 533 585 m 45 0 l 45 35 q 120 59 100 45 q 147 91 141 73 q 154 159 154 109 l 154 487 q 132 557 154 536 q 41 585 110 578 l 41 624 q 133 635 74 625 q 245 659 193 646 l 283 659 l 283 158 q 287 100 283 117 q 301 71 291 83 q 333 49 312 59 q 392 35 353 39 l 392 0 l 45 0 z "},"!":{"ha":861,"x_min":48,"x_max":833,"o":"m 48 0 l 48 45 q 132 69 111 49 q 154 130 154 90 l 154 612 l 48 612 l 48 658 l 154 658 l 155 701 q 189 861 155 802 q 300 952 224 920 q 469 984 377 984 q 604 966 543 984 q 694 913 666 948 q 722 833 722 879 q 704 775 722 794 q 651 757 686 757 q 603 774 619 757 q 575 853 586 791 q 559 904 569 889 q 523 928 549 919 q 456 937 498 937 q 362 920 401 937 q 303 868 323 903 q 283 781 283 833 l 283 658 l 730 658 l 730 119 q 751 69 730 87 q 833 42 779 45 l 833 0 l 492 0 l 492 42 q 577 68 555 47 q 598 146 598 90 l 598 500 q 588 572 598 551 q 557 603 578 593 q 481 612 535 612 l 283 612 l 283 125 q 301 71 283 90 q 395 42 330 43 l 395 0 l 48 0 z "},"\"":{"ha":861,"x_min":45,"x_max":832,"o":"m 45 0 l 45 42 q 116 60 94 49 q 144 86 137 71 q 151 143 151 102 l 151 612 l 45 612 l 45 658 l 151 658 l 151 701 q 222 902 150 821 q 454 984 294 984 q 545 976 503 984 q 640 948 586 968 l 683 964 l 723 964 l 723 148 q 740 78 723 100 q 832 42 764 47 l 832 0 l 488 0 l 488 42 q 569 62 551 49 q 594 136 594 80 l 594 787 q 580 807 584 798 q 572 845 574 821 q 562 897 570 882 q 528 926 551 916 q 449 939 497 939 q 365 924 404 939 q 317 889 336 912 q 287 828 298 866 q 279 755 279 802 l 279 658 l 411 658 l 411 612 l 279 612 l 279 126 q 302 67 279 87 q 392 42 324 47 l 392 0 l 45 0 z "},"§":{"ha":891,"x_min":33,"x_max":994,"o":"m 33 612 l 33 658 l 138 658 l 138 694 q 162 836 138 785 q 265 945 195 905 q 439 984 335 984 q 667 924 558 984 q 869 985 764 985 q 965 963 937 985 q 994 908 994 941 q 977 865 994 882 q 935 848 960 848 q 908 855 919 848 q 865 895 897 861 q 836 919 848 913 q 807 924 825 924 q 753 908 777 924 q 718 857 730 891 q 711 777 711 836 l 711 658 l 843 658 l 843 612 l 711 612 l 711 148 q 728 78 711 100 q 820 42 752 47 l 820 0 l 476 0 l 476 42 q 557 62 538 49 q 582 136 582 80 l 582 612 l 267 612 l 267 126 q 290 67 267 87 q 380 42 312 47 l 380 0 l 33 0 l 33 42 q 103 60 82 49 q 132 86 125 71 q 138 143 138 102 l 138 612 l 33 612 m 267 658 l 582 658 l 582 714 q 575 835 582 806 q 528 907 566 876 q 428 939 490 939 q 339 917 378 939 q 284 856 301 894 q 267 755 267 817 l 267 658 z "},"$":{"ha":952,"x_min":26,"x_max":944,"o":"m 135 612 l 26 612 l 26 658 l 135 658 l 135 695 q 144 817 135 785 q 190 898 157 863 q 288 959 223 932 q 421 985 353 985 q 518 963 490 985 q 547 908 547 941 q 530 865 547 882 q 487 848 513 848 q 461 854 472 848 q 434 878 451 859 q 392 917 405 910 q 361 924 380 924 q 313 911 334 924 q 277 872 291 899 q 264 812 264 845 l 264 658 l 469 658 q 570 673 535 658 q 627 733 605 688 q 656 899 654 791 l 705 899 l 705 658 l 897 658 l 897 612 l 705 612 l 705 174 q 730 71 705 99 q 802 42 755 42 q 856 53 831 42 q 910 89 881 63 l 944 56 q 871 3 907 19 q 762 -20 821 -20 q 677 -7 716 -20 q 617 26 639 5 q 586 76 595 47 q 579 130 579 95 l 579 612 l 264 612 l 264 148 q 281 78 264 100 q 373 42 305 47 l 373 0 l 29 0 l 29 42 q 110 62 91 49 q 135 136 135 80 l 135 612 z "},"%":{"ha":1289,"x_min":33,"x_max":1261,"o":"m 33 612 l 33 658 l 138 658 l 138 694 q 162 836 138 785 q 265 945 195 906 q 439 984 335 984 q 551 970 499 984 q 672 922 603 957 q 908 984 774 984 q 1033 966 974 984 q 1121 913 1093 947 q 1150 830 1150 880 q 1132 775 1150 794 q 1079 757 1114 757 q 1030 774 1047 757 q 1003 853 1014 791 q 987 904 997 889 q 951 928 977 919 q 884 937 926 937 q 790 920 829 937 q 731 868 751 903 q 711 781 711 833 l 711 658 l 1158 658 l 1158 119 q 1178 69 1158 87 q 1261 42 1206 45 l 1261 0 l 920 0 l 920 42 q 1005 68 983 47 q 1026 146 1026 90 l 1026 500 q 1016 572 1026 551 q 985 602 1006 593 q 909 612 963 612 l 711 612 l 711 148 q 728 78 711 100 q 820 42 752 47 l 820 0 l 476 0 l 476 42 q 557 62 538 49 q 582 136 582 80 l 582 612 l 267 612 l 267 126 q 290 67 267 87 q 380 42 312 47 l 380 0 l 33 0 l 33 42 q 103 60 82 49 q 132 86 125 71 q 138 143 138 102 l 138 612 l 33 612 m 582 658 l 582 714 q 575 835 582 806 q 528 907 566 876 q 428 939 490 939 q 339 917 378 939 q 284 856 301 894 q 267 755 267 817 l 267 658 l 582 658 z "},"&":{"ha":1293,"x_min":33,"x_max":1264,"o":"m 673 920 q 779 968 727 953 q 888 984 830 984 q 983 975 935 984 q 1072 948 1019 967 l 1114 964 l 1155 964 l 1155 148 q 1172 78 1155 100 q 1264 42 1196 47 l 1264 0 l 920 0 l 920 42 q 1001 62 982 49 q 1026 136 1026 80 l 1026 787 q 1012 807 1015 798 q 1004 845 1006 821 q 994 897 1001 882 q 960 926 983 916 q 880 939 929 939 q 779 915 817 939 q 722 840 741 891 q 711 741 711 812 l 711 658 l 843 658 l 843 612 l 711 612 l 711 126 q 733 67 711 87 q 823 42 756 47 l 823 0 l 476 0 l 476 42 q 547 60 526 49 q 575 86 568 71 q 583 143 583 102 l 583 612 l 267 612 l 267 126 q 290 67 267 87 q 380 42 312 47 l 380 0 l 33 0 l 33 42 q 103 60 82 49 q 132 86 125 71 q 138 143 138 102 l 138 612 l 33 612 l 33 658 l 138 658 l 138 694 q 162 836 138 785 q 265 945 195 905 q 439 984 335 984 q 673 920 564 984 m 583 658 l 583 719 q 573 843 583 807 q 526 909 564 878 q 428 939 488 939 q 339 917 378 939 q 284 856 301 894 q 267 755 267 817 l 267 658 l 583 658 z "},"/":{"ha":1399,"x_min":33,"x_max":1391,"o":"m 1103 899 l 1152 899 l 1152 658 l 1344 658 l 1344 612 l 1152 612 l 1152 174 q 1177 71 1152 99 q 1250 42 1202 42 q 1303 53 1278 42 q 1357 89 1328 63 l 1391 56 q 1318 3 1354 19 q 1208 -20 1268 -20 q 1124 -7 1163 -20 q 1064 26 1086 5 q 1033 76 1043 47 q 1026 130 1026 95 l 1026 612 l 711 612 l 711 148 q 728 78 711 100 q 820 42 752 47 l 820 0 l 476 0 l 476 42 q 557 62 538 49 q 582 136 582 80 l 582 612 l 267 612 l 267 126 q 290 67 267 87 q 380 42 312 47 l 380 0 l 33 0 l 33 42 q 103 60 82 49 q 132 86 125 71 q 138 143 138 102 l 138 612 l 33 612 l 33 658 l 138 658 l 138 694 q 162 836 138 785 q 265 945 195 905 q 439 984 335 984 q 667 924 558 984 q 869 985 764 985 q 965 963 937 985 q 994 908 994 941 q 977 865 994 882 q 935 848 960 848 q 908 855 919 848 q 865 895 897 861 q 836 919 848 913 q 807 924 825 924 q 753 908 777 924 q 718 857 730 891 q 711 777 711 836 l 711 658 l 916 658 q 1017 673 982 658 q 1074 733 1052 688 q 1103 899 1101 791 m 267 658 l 582 658 l 582 714 q 575 835 582 806 q 528 907 566 876 q 428 939 490 939 q 339 917 378 939 q 284 856 301 894 q 267 755 267 817 l 267 658 z "},"(":{"ha":1559,"x_min":60,"x_max":1528,"o":"m 667 0 l 667 35 q 763 68 740 45 q 785 143 785 91 l 785 760 q 778 840 785 821 q 751 867 770 858 q 663 886 731 877 l 663 921 q 866 963 783 936 l 918 963 l 918 564 q 1017 627 981 608 q 1100 661 1055 648 q 1199 674 1146 674 q 1302 659 1255 674 q 1373 621 1349 644 q 1409 569 1398 598 q 1417 508 1417 547 l 1417 119 q 1443 61 1417 83 q 1528 35 1469 39 l 1528 0 l 1158 0 l 1158 35 q 1236 54 1208 39 q 1273 93 1263 68 q 1284 162 1284 117 l 1284 453 q 1274 542 1284 513 q 1236 588 1264 570 q 1159 606 1207 606 q 1050 583 1105 606 q 918 500 995 560 l 918 138 q 927 89 918 108 q 963 55 937 69 q 1034 35 989 41 l 1034 0 l 667 0 m 637 174 l 669 140 q 596 58 628 85 q 504 -1 551 18 q 392 -20 456 -20 q 215 25 291 -20 q 100 154 140 71 q 60 332 60 237 q 100 516 60 433 q 215 638 140 600 q 381 677 290 677 q 527 652 465 677 q 621 581 588 628 q 654 486 654 534 q 634 436 654 456 q 583 417 615 417 q 535 435 553 417 q 517 479 517 452 q 522 516 517 493 q 525 538 525 531 q 489 598 525 569 q 393 627 452 627 q 296 598 335 627 q 232 497 258 568 q 207 343 207 425 q 230 194 207 266 q 300 82 253 123 q 422 41 348 41 q 506 58 469 41 q 583 111 544 75 q 637 174 608 133 z "},")":{"ha":1497,"x_min":60,"x_max":1478,"o":"m 677 0 l 677 35 q 748 54 727 43 q 778 84 768 64 q 787 144 787 104 l 787 794 q 776 841 787 825 q 745 865 766 857 q 671 880 725 873 l 671 918 q 869 963 769 923 l 909 963 l 909 334 l 1129 526 q 1154 571 1154 548 q 1141 601 1154 589 q 1082 622 1128 613 l 1082 658 l 1436 658 l 1436 622 q 1331 597 1362 610 q 1242 544 1286 578 l 1113 442 l 1346 103 q 1400 57 1365 75 q 1478 35 1436 39 l 1478 0 l 1118 0 l 1118 35 q 1186 53 1166 39 q 1198 79 1198 62 q 1182 115 1198 92 l 1019 359 l 909 264 l 909 138 q 935 69 909 94 q 1031 32 960 43 l 1031 0 l 677 0 m 637 174 l 669 140 q 596 58 628 85 q 504 -1 551 18 q 392 -20 456 -20 q 215 25 291 -20 q 100 154 140 71 q 60 332 60 237 q 100 516 60 433 q 215 638 140 600 q 381 677 290 677 q 527 652 465 677 q 621 581 588 628 q 654 486 654 534 q 634 436 654 456 q 583 417 615 417 q 535 435 553 417 q 517 479 517 452 q 522 516 517 493 q 525 538 525 531 q 489 598 525 569 q 393 627 452 627 q 296 598 335 627 q 232 497 258 568 q 207 343 207 425 q 230 194 207 266 q 300 82 253 123 q 422 41 348 41 q 506 58 469 41 q 583 111 544 75 q 637 174 608 133 z "},"Ä":{"ha":1550,"x_min":-16,"x_max":1618,"o":"m 873 347 q 711 97 789 190 q 530 -51 633 4 q 313 -105 427 -105 q 75 -20 167 -105 q -16 184 -16 65 q 24 343 -16 267 q 135 460 65 419 q 285 501 205 501 q 396 472 360 501 q 433 403 433 443 q 408 346 433 370 q 346 321 382 321 q 314 327 328 321 q 278 351 300 332 q 240 375 255 369 q 210 382 225 382 q 141 359 176 382 q 83 287 106 336 q 60 190 60 238 q 111 52 60 113 q 303 -32 180 -32 q 446 -6 377 -32 q 574 68 514 20 q 701 208 635 117 q 882 523 789 330 q 1047 930 975 717 l 1174 930 l 1461 198 q 1503 105 1486 136 q 1529 73 1514 86 q 1565 52 1544 60 q 1618 40 1586 43 l 1618 0 l 1234 0 l 1234 40 q 1321 67 1301 50 q 1341 107 1341 85 q 1326 170 1341 130 l 1259 347 l 873 347 m 1082 806 q 902 402 1030 665 l 1234 402 l 1082 806 m 1326 1096 q 1305 1043 1326 1065 q 1253 1022 1284 1022 q 1200 1044 1222 1022 q 1179 1096 1179 1065 q 1200 1148 1179 1126 q 1253 1170 1222 1170 q 1305 1148 1283 1170 q 1326 1096 1326 1126 m 896 1096 q 918 1148 896 1126 q 970 1170 939 1170 q 1022 1148 1000 1170 q 1044 1096 1044 1126 q 1022 1044 1044 1065 q 970 1022 1000 1022 q 918 1043 939 1022 q 896 1096 896 1065 z "},"Ö":{"ha":1005,"x_min":44,"x_max":961,"o":"m 336 953 l 355 926 q 239 717 278 838 q 207 486 207 621 q 298 136 207 249 q 499 45 371 45 q 715 145 632 45 q 798 469 798 245 q 781 664 798 567 q 726 829 764 761 q 662 899 702 873 q 580 925 623 925 q 499 901 539 925 q 434 823 459 876 q 408 705 408 770 q 439 589 408 634 q 483 563 457 563 q 500 567 493 563 q 523 587 505 568 q 565 605 541 605 q 610 587 592 605 q 628 543 628 570 q 599 490 628 513 q 517 466 570 466 q 388 528 441 466 q 334 699 334 589 q 368 846 334 780 q 460 948 401 912 q 593 983 519 983 q 739 947 674 983 q 848 852 804 910 q 920 726 893 794 q 961 494 961 620 q 902 225 961 346 q 732 41 843 105 q 485 -23 622 -23 q 301 14 387 -23 q 150 130 216 52 q 72 274 100 189 q 44 458 44 359 q 114 739 44 621 q 336 953 183 857 m 726 1124 q 704 1071 726 1093 q 652 1050 683 1050 q 600 1072 621 1050 q 578 1124 578 1093 q 600 1176 578 1154 q 652 1198 621 1198 q 704 1176 682 1198 q 726 1124 726 1154 m 295 1124 q 317 1176 295 1154 q 369 1198 338 1198 q 421 1176 399 1198 q 443 1124 443 1154 q 421 1072 443 1093 q 369 1050 399 1050 q 317 1071 338 1050 q 295 1124 295 1093 z "},"Ü":{"ha":1331,"x_min":-7,"x_max":1314,"o":"m 977 930 l 1314 930 l 1314 890 l 1291 886 q 1232 864 1252 880 q 1201 818 1213 848 q 1190 734 1190 787 l 1190 279 q 1174 152 1190 197 q 1123 71 1157 106 q 1055 19 1090 37 q 972 -9 1020 1 q 827 -23 908 -23 q 622 1 695 -23 q 525 61 568 19 q 461 148 481 102 q 441 275 441 194 l 441 734 q 439 802 441 787 q 428 837 436 825 q 398 857 419 849 q 319 869 368 869 q 141 827 214 869 q 68 718 68 785 q 87 662 68 684 q 125 640 106 640 q 140 644 133 640 q 157 660 144 646 q 189 687 174 680 q 222 694 203 694 q 272 675 253 694 q 292 626 292 656 q 257 555 292 585 q 163 524 222 524 q 78 546 118 524 q 16 608 39 567 q -7 698 -7 649 q 41 827 -7 767 q 178 913 90 888 q 427 930 239 930 l 714 930 l 714 890 l 677 886 q 620 864 643 882 q 585 811 597 845 q 577 734 577 785 l 577 368 q 591 191 577 242 q 640 109 606 140 q 726 61 675 77 q 841 45 777 45 q 996 72 933 45 q 1068 129 1044 93 q 1103 212 1093 164 q 1113 372 1113 259 l 1113 734 q 1103 819 1113 791 q 1067 865 1093 847 q 1013 886 1042 883 l 977 890 l 977 930 m 1054 1096 q 1033 1043 1054 1065 q 980 1022 1011 1022 q 928 1044 949 1022 q 906 1096 906 1065 q 928 1148 906 1126 q 980 1170 949 1170 q 1032 1148 1010 1170 q 1054 1096 1054 1126 m 623 1096 q 645 1148 623 1126 q 697 1170 667 1170 q 749 1148 728 1170 q 771 1096 771 1126 q 749 1044 771 1065 q 697 1022 728 1022 q 645 1043 667 1022 q 623 1096 623 1065 z "},"Å":{"ha":1550,"x_min":-16,"x_max":1618,"o":"m 873 347 q 711 97 789 190 q 530 -51 633 4 q 313 -105 427 -105 q 75 -20 167 -105 q -16 184 -16 65 q 24 343 -16 267 q 135 460 65 419 q 285 501 205 501 q 396 472 360 501 q 433 403 433 443 q 408 346 433 370 q 346 321 382 321 q 314 327 328 321 q 278 351 300 332 q 240 375 255 369 q 210 382 225 382 q 141 359 176 382 q 83 287 106 336 q 60 190 60 238 q 111 52 60 113 q 303 -32 180 -32 q 446 -6 377 -32 q 574 68 514 20 q 701 208 635 117 q 882 523 789 330 q 1047 930 975 717 l 1174 930 l 1461 198 q 1503 105 1486 136 q 1529 73 1514 86 q 1565 52 1544 60 q 1618 40 1586 43 l 1618 0 l 1234 0 l 1234 40 q 1321 67 1301 50 q 1341 107 1341 85 q 1326 170 1341 130 l 1259 347 l 873 347 m 1082 806 q 902 402 1030 665 l 1234 402 l 1082 806 m 960 1118 q 979 1187 960 1154 q 1031 1240 997 1221 q 1101 1259 1065 1259 q 1202 1218 1160 1259 q 1243 1118 1243 1177 q 1202 1018 1243 1059 q 1101 977 1160 977 q 1031 996 1065 977 q 979 1048 997 1015 q 960 1118 960 1082 m 1017 1118 q 1041 1058 1017 1082 q 1102 1033 1066 1033 q 1162 1058 1137 1033 q 1187 1118 1187 1083 q 1162 1178 1187 1154 q 1102 1203 1137 1203 q 1041 1178 1066 1203 q 1017 1118 1017 1154 z "},"Ø":{"ha":1005,"x_min":44,"x_max":961,"o":"m 319 113 l 477 470 q 376 544 417 485 q 334 699 334 604 q 368 846 334 781 q 460 948 401 912 q 594 983 519 983 q 697 966 646 983 l 753 1090 l 814 1090 l 748 942 q 900 769 840 888 q 961 494 961 650 q 902 226 961 347 q 733 41 844 105 q 485 -23 622 -23 q 331 2 401 -23 l 271 -133 l 209 -133 l 279 25 q 97 210 151 96 q 44 458 44 323 q 114 739 44 621 q 336 953 183 857 l 355 926 q 238 715 277 837 q 207 483 207 619 q 240 244 207 331 q 319 113 274 157 m 667 896 q 581 925 623 925 q 499 900 539 925 q 433 822 458 876 q 408 705 408 769 q 439 589 408 634 q 484 563 457 563 q 500 567 492 563 q 518 582 507 570 q 532 595 524 589 l 667 896 m 365 78 q 500 45 425 45 q 657 91 589 45 q 761 229 724 136 q 798 472 798 321 q 771 708 798 610 q 709 855 745 807 l 595 597 q 628 544 628 578 q 606 495 628 517 q 537 467 583 473 l 365 78 z "},"Æ":{"ha":2151,"x_min":-16,"x_max":2145,"o":"m 1029 465 l 803 203 q 639 26 699 83 q 537 -47 593 -18 q 426 -91 481 -77 q 313 -105 370 -105 q 75 -20 166 -105 q -16 184 -16 65 q 24 343 -16 267 q 135 460 65 419 q 285 501 205 501 q 396 472 360 501 q 433 403 433 443 q 408 346 433 370 q 346 321 382 321 q 314 327 328 321 q 278 351 300 332 q 240 375 255 369 q 210 382 225 382 q 141 359 176 382 q 83 287 106 336 q 60 190 60 238 q 111 52 60 113 q 300 -32 180 -32 q 456 -2 382 -32 q 578 69 531 28 q 761 264 625 110 l 1353 930 l 2007 930 l 2102 686 l 2058 667 q 1953 778 1999 741 q 1824 849 1892 826 q 1658 872 1756 872 q 1575 865 1613 872 q 1532 846 1548 859 q 1509 816 1516 833 q 1502 759 1502 799 l 1502 530 l 1600 530 q 1693 546 1664 530 q 1737 593 1722 562 q 1763 700 1753 624 l 1810 700 l 1810 292 l 1763 292 q 1735 399 1756 361 q 1681 452 1713 437 q 1597 467 1649 467 l 1502 467 l 1502 179 q 1513 106 1502 128 q 1551 74 1524 85 q 1651 58 1589 58 q 1844 89 1765 58 q 1988 179 1923 121 q 2102 310 2035 221 l 2145 292 l 2020 0 l 1242 0 l 1242 40 l 1266 44 q 1324 67 1305 52 q 1355 113 1344 83 q 1367 197 1367 143 l 1367 465 l 1029 465 m 1367 526 l 1367 849 l 1085 526 l 1367 526 z "},"Œ":{"ha":1641,"x_min":44,"x_max":1591,"o":"m 812 930 l 1453 930 l 1548 686 l 1503 667 q 1400 778 1446 741 q 1271 849 1339 826 q 1105 872 1203 872 q 1022 865 1060 872 q 979 846 994 859 q 956 816 963 833 q 949 759 949 799 l 949 530 l 1046 530 q 1139 546 1110 530 q 1184 593 1168 562 q 1210 700 1200 624 l 1257 700 l 1257 292 l 1210 292 q 1181 399 1203 361 q 1127 452 1159 437 q 1044 467 1095 467 l 949 467 l 949 179 q 959 106 949 128 q 998 74 970 85 q 1098 58 1036 58 q 1291 89 1211 58 q 1434 179 1370 121 q 1548 310 1481 221 l 1591 292 l 1467 0 l 812 0 l 812 102 q 686 17 751 45 q 484 -23 593 -23 q 253 40 355 -23 q 98 209 151 104 q 44 458 44 315 q 114 739 44 621 q 336 953 183 857 l 355 926 q 239 717 278 838 q 207 486 207 621 q 298 136 207 249 q 499 45 371 45 q 715 145 632 45 q 798 469 798 245 q 781 664 798 567 q 726 829 764 761 q 662 899 702 873 q 580 925 623 925 q 499 901 539 925 q 434 823 459 876 q 408 705 408 770 q 439 589 408 634 q 483 563 457 563 q 500 567 493 563 q 523 587 505 568 q 565 605 541 605 q 610 587 592 605 q 628 543 628 570 q 599 490 628 513 q 517 466 570 466 q 388 528 441 466 q 334 699 334 589 q 368 846 334 780 q 460 948 401 912 q 593 983 519 983 q 709 961 657 983 q 812 892 760 939 l 812 930 z "},"А":{"ha":1550,"x_min":-16,"x_max":1618,"o":"m 873 347 q 711 97 789 190 q 530 -51 633 4 q 313 -105 427 -105 q 75 -20 167 -105 q -16 184 -16 65 q 24 343 -16 267 q 135 460 65 419 q 285 501 205 501 q 396 472 360 501 q 433 403 433 443 q 408 346 433 370 q 346 321 382 321 q 314 327 328 321 q 278 351 300 332 q 240 375 255 369 q 210 382 225 382 q 141 359 176 382 q 83 287 106 336 q 60 190 60 238 q 111 52 60 113 q 303 -32 180 -32 q 446 -6 377 -32 q 574 68 514 20 q 701 208 635 117 q 882 523 789 330 q 1047 930 975 717 l 1174 930 l 1461 198 q 1503 105 1486 136 q 1529 73 1514 86 q 1565 52 1544 60 q 1618 40 1586 43 l 1618 0 l 1234 0 l 1234 40 q 1321 67 1301 50 q 1341 107 1341 85 q 1326 170 1341 130 l 1259 347 l 873 347 m 1082 806 q 902 402 1030 665 l 1234 402 l 1082 806 z "},"В":{"ha":1202,"x_min":-35,"x_max":1167,"o":"m 908 504 q 1004 481 974 492 q 1089 437 1053 465 q 1146 367 1125 408 q 1167 281 1167 325 q 1147 184 1167 234 q 1094 98 1127 134 q 1034 54 1074 77 q 945 18 993 31 q 767 0 873 0 l 281 0 l 281 40 l 305 44 q 363 67 344 52 q 394 113 382 83 q 405 197 405 143 l 405 770 q 398 833 405 816 q 375 860 391 851 q 323 869 359 869 q 155 847 213 869 q 68 790 96 825 q 41 718 41 756 q 57 666 41 686 q 91 647 73 647 q 102 650 97 647 q 125 670 105 652 q 172 689 144 689 q 221 669 201 689 q 242 622 242 650 q 211 557 242 585 q 129 529 180 529 q 14 578 62 529 q -35 697 -35 627 q -16 778 -35 739 q 38 851 2 818 q 120 902 75 884 q 238 927 165 920 q 363 930 276 930 l 753 930 q 962 904 894 930 q 1065 824 1030 877 q 1100 708 1100 771 q 1085 631 1100 665 q 1048 575 1070 596 q 993 537 1026 554 q 908 504 968 525 m 541 533 l 691 533 q 904 577 850 533 q 959 707 959 622 q 933 801 959 760 q 857 861 907 842 q 713 881 808 881 q 588 867 627 881 q 551 836 562 857 q 541 762 541 814 l 541 533 m 541 477 l 541 210 q 551 109 541 132 q 590 73 562 84 q 719 56 634 56 q 840 67 784 56 q 932 104 897 79 q 991 174 967 130 q 1015 277 1015 219 q 943 431 1015 385 q 691 477 871 477 l 541 477 z "},"Е":{"ha":1190,"x_min":-39,"x_max":1183,"o":"m 281 0 l 281 40 l 304 44 q 363 67 343 52 q 394 113 382 83 q 405 197 405 143 l 405 734 q 399 822 405 802 q 373 852 392 842 q 283 869 340 869 q 106 822 167 869 q 45 721 45 774 q 63 672 45 691 q 104 653 81 653 q 118 656 112 653 q 144 676 121 658 q 197 694 167 694 q 249 674 228 694 q 269 629 269 654 q 236 564 269 593 q 144 534 202 534 q 52 555 95 534 q -15 615 9 576 q -39 701 -39 654 q 8 825 -39 764 q 141 912 56 886 q 390 930 202 930 l 1046 930 l 1141 686 l 1096 667 q 991 778 1038 741 q 863 849 931 826 q 696 872 795 872 q 614 865 652 872 q 570 846 586 859 q 548 816 555 833 q 541 759 541 799 l 541 530 l 638 530 q 731 546 702 530 q 776 593 761 562 q 802 700 791 624 l 849 700 l 849 292 l 802 292 q 773 399 795 361 q 719 452 751 437 q 635 467 687 467 l 541 467 l 541 179 q 551 106 541 128 q 589 74 562 85 q 690 58 628 58 q 883 89 804 58 q 1027 179 962 121 q 1141 310 1074 221 l 1183 292 l 1059 0 l 281 0 z "},"Н":{"ha":1318,"x_min":-27,"x_max":1292,"o":"m 541 527 l 1032 527 l 1032 734 q 1023 817 1032 789 q 991 862 1013 845 q 932 886 968 880 l 909 890 l 909 930 l 1292 930 l 1292 890 l 1268 886 q 1219 870 1236 880 q 1190 840 1202 859 q 1173 799 1178 820 q 1168 734 1168 777 l 1168 197 q 1178 114 1168 142 q 1210 68 1187 85 q 1268 44 1232 51 l 1292 40 l 1292 0 l 909 0 l 909 40 l 932 44 q 982 61 965 50 q 1010 91 998 71 q 1027 132 1023 111 q 1032 197 1032 153 l 1032 471 l 541 471 l 541 197 q 551 113 541 142 q 583 68 561 85 q 641 44 605 51 l 665 40 l 665 0 l 281 0 l 281 40 l 305 44 q 363 67 344 52 q 394 113 383 83 q 406 197 406 143 l 406 734 q 399 822 406 802 q 374 852 393 842 q 283 869 340 869 q 111 819 172 869 q 50 709 50 769 q 72 647 50 671 q 123 623 95 623 q 142 627 134 623 q 166 652 145 629 q 218 675 187 675 q 267 654 246 675 q 288 606 288 633 q 254 540 288 569 q 157 511 219 511 q 26 565 80 511 q -27 696 -27 619 q 20 825 -27 764 q 151 912 67 886 q 391 930 210 930 l 665 930 l 665 890 l 641 886 q 583 864 602 880 q 552 818 564 848 q 541 734 541 787 l 541 527 z "},"О":{"ha":1005,"x_min":44,"x_max":961,"o":"m 336 953 l 355 926 q 239 717 278 838 q 207 486 207 621 q 298 136 207 249 q 499 45 371 45 q 715 145 632 45 q 798 469 798 245 q 781 664 798 567 q 726 829 764 761 q 662 899 702 873 q 580 925 623 925 q 499 901 539 925 q 434 823 459 876 q 408 705 408 770 q 439 589 408 634 q 483 563 457 563 q 500 567 493 563 q 523 587 505 568 q 565 605 541 605 q 610 587 592 605 q 628 543 628 570 q 599 490 628 513 q 517 466 570 466 q 388 528 441 466 q 334 699 334 589 q 368 846 334 780 q 460 948 401 912 q 593 983 519 983 q 739 947 674 983 q 848 852 804 910 q 920 726 893 794 q 961 494 961 620 q 902 225 961 346 q 732 41 843 105 q 485 -23 622 -23 q 301 14 387 -23 q 150 130 216 52 q 72 274 100 189 q 44 458 44 359 q 114 739 44 621 q 336 953 183 857 z "},"Р":{"ha":1049,"x_min":2,"x_max":1080,"o":"m 541 407 l 541 197 q 551 112 541 140 q 587 66 562 84 q 641 44 612 47 l 678 40 l 678 0 l 281 0 l 281 40 l 305 44 q 363 67 344 52 q 394 113 383 83 q 406 197 406 143 l 406 734 q 399 823 406 804 q 372 852 392 843 q 290 869 338 869 q 142 821 198 869 q 86 714 86 774 q 101 661 86 680 q 134 642 117 642 q 149 645 142 642 q 163 659 153 647 q 190 682 180 677 q 221 689 204 689 q 273 669 252 689 q 294 620 294 649 q 263 555 294 583 q 178 528 232 528 q 57 574 111 528 q 2 698 2 621 q 35 806 2 753 q 118 886 68 859 q 225 922 168 913 q 391 930 283 930 l 748 930 q 931 897 857 930 q 1043 803 1006 863 q 1080 673 1080 743 q 1050 552 1080 609 q 992 481 1027 509 q 896 430 958 453 q 747 407 835 407 l 541 407 m 541 463 l 726 463 q 831 479 792 463 q 885 515 857 489 q 928 573 914 541 q 946 668 946 616 q 887 821 946 765 q 711 878 829 878 q 594 867 641 878 q 552 844 562 859 q 541 785 541 829 l 541 463 z "},"М":{"ha":1882,"x_min":-16,"x_max":1847,"o":"m 1013 930 l 1261 174 l 1564 930 l 1847 930 l 1847 890 q 1787 872 1803 880 q 1758 845 1771 863 q 1739 803 1745 827 q 1733 734 1733 779 l 1733 197 q 1739 124 1733 149 q 1760 82 1746 99 q 1795 56 1774 66 q 1847 40 1807 50 l 1847 0 l 1474 0 l 1474 40 l 1498 44 q 1548 60 1531 50 q 1576 91 1564 71 q 1593 132 1588 111 q 1598 197 1598 153 l 1598 834 l 1261 0 l 1184 0 l 924 783 q 904 366 924 493 q 808 79 876 193 q 622 -98 741 -34 q 357 -163 503 -163 q 71 -60 175 -163 q -16 146 -16 26 q 22 288 -16 222 q 130 390 60 353 q 273 427 199 427 q 406 388 353 427 q 443 326 443 360 q 420 272 443 294 q 367 249 398 249 q 329 257 345 249 q 291 289 313 265 q 254 320 270 313 q 213 328 237 328 q 143 308 177 328 q 89 243 110 287 q 68 144 68 199 q 152 -27 68 37 q 368 -91 235 -91 q 545 -55 467 -91 q 677 37 623 -19 q 763 154 732 92 q 830 368 805 235 q 861 720 861 532 q 844 850 861 829 q 759 870 827 870 q 542 825 604 870 q 480 719 480 780 q 496 663 480 682 q 534 645 511 645 q 574 661 551 645 q 606 681 597 677 q 630 686 618 686 q 680 665 659 686 q 701 613 701 644 q 669 553 701 580 q 581 526 637 526 q 488 550 532 526 q 421 616 445 573 q 397 705 397 659 q 417 786 397 746 q 477 859 437 827 q 576 909 518 892 q 679 926 615 921 q 871 930 743 930 l 1013 930 z "},"Т":{"ha":905,"x_min":-16,"x_max":1076,"o":"m 583 806 l 583 197 q 594 111 583 138 q 631 65 604 83 q 684 44 657 47 l 729 40 l 729 0 l 311 0 l 311 40 l 348 44 q 405 67 382 48 q 439 119 428 85 q 448 197 448 145 l 448 831 q 321 853 359 849 q 249 858 283 858 q 103 814 155 858 q 52 707 52 770 q 80 632 52 660 q 151 604 108 604 q 180 611 171 604 q 199 641 187 616 q 214 670 210 665 q 238 689 224 682 q 272 696 252 696 q 326 677 306 696 q 346 629 346 659 q 329 573 346 600 q 275 531 311 547 q 195 515 239 515 q 90 538 143 515 q 11 606 37 562 q -16 706 -16 650 q 100 899 -16 824 q 317 960 193 960 q 429 952 363 960 q 568 929 494 945 q 683 900 595 924 q 787 874 770 877 q 850 869 818 869 q 963 891 916 869 q 1044 954 1009 913 l 1076 927 q 1013 863 1044 885 q 902 811 971 832 q 749 789 833 789 q 583 806 685 789 z "},"С":{"ha":986,"x_min":44,"x_max":957,"o":"m 822 981 l 911 675 l 864 662 q 701 869 781 808 q 532 929 621 929 q 425 905 476 929 q 331 833 374 880 q 276 749 301 800 q 235 635 252 699 q 207 410 207 524 q 247 156 207 277 q 364 -23 287 35 q 547 -82 441 -82 q 721 -40 640 -82 q 843 70 803 2 q 883 210 883 137 q 859 321 883 267 q 794 400 835 375 q 707 426 753 426 q 627 400 657 426 q 600 341 608 385 q 571 279 592 297 q 520 261 551 261 q 466 283 488 261 q 444 337 444 306 q 470 411 444 370 q 551 475 497 452 q 678 498 605 498 q 821 467 761 498 q 919 373 880 437 q 957 223 957 309 q 905 39 957 125 q 756 -95 854 -47 q 539 -142 658 -142 q 326 -93 420 -142 q 191 12 254 -56 q 92 156 127 79 q 44 400 44 260 q 110 701 44 568 q 293 911 176 833 q 529 988 410 988 q 753 919 647 988 l 777 981 l 822 981 z "},"Х":{"ha":1257,"x_min":-16,"x_max":1316,"o":"m 769 405 l 694 313 q 540 136 601 199 q 393 5 452 45 q 272 -58 335 -36 q 153 -79 208 -79 q 27 -46 70 -79 q -16 28 -16 -13 q 4 75 -16 56 q 55 95 24 95 q 95 85 77 95 q 136 49 114 75 q 173 16 159 24 q 207 9 187 9 q 290 28 250 9 q 454 150 364 64 q 629 340 544 237 l 728 460 l 479 782 q 414 846 444 828 q 351 863 384 863 q 275 846 311 863 q 220 798 239 829 q 201 734 201 767 q 212 695 201 709 q 237 681 224 681 q 263 688 246 681 q 309 701 289 701 q 362 679 340 701 q 385 630 385 657 q 356 573 385 600 q 283 547 327 547 q 203 569 243 547 q 141 632 163 591 q 118 718 118 673 q 153 827 118 774 q 248 905 189 880 q 435 930 307 930 l 729 930 l 729 890 q 663 881 677 885 q 634 863 644 875 q 625 838 625 851 q 648 781 625 811 l 818 560 l 977 766 q 1000 827 1000 796 q 979 872 1000 857 q 910 890 958 887 l 910 930 l 1280 930 l 1280 890 q 1193 868 1217 878 q 1143 837 1169 858 q 1037 726 1097 799 l 856 507 l 1120 165 q 1206 76 1173 96 q 1316 40 1249 50 l 1316 0 l 867 0 l 867 40 q 936 50 925 47 q 968 69 956 56 q 979 96 979 82 q 973 127 979 112 q 946 170 966 143 l 769 405 z "},"З":{"ha":910,"x_min":55,"x_max":853,"o":"m 853 275 q 722 51 853 126 q 456 -10 616 -10 q 196 39 301 -10 q 55 238 55 102 q 80 304 55 279 q 144 330 105 330 q 202 306 180 330 q 224 247 224 281 q 219 211 224 233 q 215 178 215 190 q 304 79 215 113 q 448 54 370 54 q 618 101 547 54 q 701 251 701 157 q 576 460 701 409 q 481 475 538 475 l 307 475 l 305 534 l 479 534 q 610 578 570 534 q 649 715 649 623 q 587 839 649 795 q 450 879 532 879 q 267 824 334 879 q 157 663 216 781 l 115 680 l 154 926 l 204 926 l 220 878 q 477 943 328 943 q 685 883 596 943 q 789 700 789 814 q 693 511 789 556 q 814 422 769 494 q 853 275 853 356 z "},"Й":{"ha":1394,"x_min":38,"x_max":1337,"o":"m 1337 0 l 953 0 l 953 42 q 1031 58 981 45 q 1077 197 1077 78 l 1078 610 l 585 229 q 591 136 589 149 q 631 58 600 74 q 710 42 647 51 l 710 0 l 326 0 l 326 42 q 404 58 353 45 q 450 193 450 78 l 450 739 q 424 858 450 825 q 348 869 393 869 q 176 819 237 869 q 115 709 115 769 q 137 647 115 671 q 188 623 160 623 q 207 627 199 623 q 231 652 210 629 q 283 675 252 675 q 332 654 311 675 q 353 606 353 633 q 319 540 353 569 q 222 511 284 511 q 92 565 145 511 q 38 696 38 619 q 85 825 38 764 q 216 912 132 886 q 326 927 250 923 l 326 932 l 710 932 l 710 890 q 631 875 681 887 q 587 735 587 852 l 585 315 l 1078 696 q 1073 794 1076 781 q 1031 875 1064 858 q 953 890 1015 883 l 953 932 l 1337 932 l 1337 890 q 1259 875 1308 887 q 1214 739 1214 852 l 1214 193 q 1259 58 1214 79 q 1337 42 1274 51 l 1337 0 m 1094 1170 q 834 1008 1050 1008 q 647 1058 722 1008 q 573 1170 573 1107 q 640 1238 573 1238 q 709 1181 709 1238 q 705 1158 709 1173 q 702 1136 702 1143 q 749 1074 702 1093 q 834 1058 787 1058 q 918 1074 882 1058 q 966 1136 966 1095 q 962 1159 966 1144 q 959 1181 959 1174 q 1027 1238 959 1238 q 1076 1219 1057 1238 q 1094 1170 1094 1200 z "},"Л":{"ha":1022,"x_min":-27,"x_max":999,"o":"m 999 0 l 615 0 l 615 42 q 693 58 642 45 q 739 192 739 79 l 739 747 q 704 873 739 864 q 685 876 695 876 l 517 876 q 465 793 474 876 q 440 465 453 629 q 372 145 421 275 q 283 31 345 74 q 146 -12 222 -12 q 7 90 7 -12 q 31 162 7 133 q 96 192 55 192 q 185 151 169 192 q 199 113 190 137 q 232 98 205 98 q 270 129 252 98 q 346 422 318 205 q 369 736 369 595 q 341 863 369 829 q 283 869 316 869 q 111 819 172 869 q 50 709 50 769 q 72 647 50 671 q 123 623 95 623 q 142 627 134 623 q 166 652 145 629 q 218 675 187 675 q 267 654 246 675 q 288 606 288 633 q 254 540 288 569 q 157 511 219 511 q 26 565 80 511 q -27 696 -27 619 q 20 825 -27 764 q 151 912 67 886 q 246 926 181 922 l 246 935 l 999 935 l 999 892 q 920 877 970 889 q 876 742 876 854 l 876 192 q 920 58 876 79 q 999 42 936 50 l 999 0 z "},"И":{"ha":1394,"x_min":38,"x_max":1337,"o":"m 1337 0 l 953 0 l 953 42 q 1031 58 981 45 q 1077 197 1077 78 l 1078 610 l 585 229 q 591 136 589 149 q 631 58 600 74 q 710 42 647 51 l 710 0 l 326 0 l 326 42 q 404 58 353 45 q 450 193 450 78 l 450 739 q 424 858 450 825 q 348 869 393 869 q 176 819 237 869 q 115 709 115 769 q 137 647 115 671 q 188 623 160 623 q 207 627 199 623 q 231 652 210 629 q 283 675 252 675 q 332 654 311 675 q 353 606 353 633 q 319 540 353 569 q 222 511 284 511 q 92 565 145 511 q 38 696 38 619 q 85 825 38 764 q 216 912 132 886 q 326 927 250 923 l 326 932 l 710 932 l 710 890 q 631 875 681 887 q 587 735 587 852 l 585 315 l 1078 696 q 1073 794 1076 781 q 1031 875 1064 858 q 953 890 1015 883 l 953 932 l 1337 932 l 1337 890 q 1259 875 1308 887 q 1214 739 1214 852 l 1214 193 q 1259 58 1214 79 q 1337 42 1274 51 l 1337 0 z "},"Б":{"ha":1138,"x_min":26,"x_max":1104,"o":"m 1104 272 q 998 64 1104 138 q 764 0 904 0 l 314 0 l 314 43 q 391 58 340 46 q 436 196 436 79 l 437 690 q 422 829 436 801 q 399 861 414 849 q 336 869 373 869 q 163 819 224 869 q 102 709 102 769 q 125 647 102 671 q 176 623 148 623 q 195 627 187 623 q 219 652 198 629 q 271 675 240 675 q 320 654 299 675 q 341 606 341 633 q 307 540 341 569 q 210 511 272 511 q 79 565 133 511 q 26 696 26 619 q 73 825 26 764 q 203 912 120 886 q 444 930 262 930 l 442 926 l 972 926 l 1072 693 l 1027 672 q 869 819 937 779 q 659 869 785 869 q 586 827 604 869 q 572 736 572 798 l 572 549 q 753 568 651 568 q 994 490 890 568 q 1104 272 1104 405 m 965 276 q 732 509 956 509 q 572 490 635 509 l 572 144 q 579 100 572 116 q 645 61 590 69 q 727 58 665 58 q 965 276 965 58 z "},"Д":{"ha":1109,"x_min":38,"x_max":1101,"o":"m 1101 -166 l 1054 -166 q 1008 -31 1031 -55 q 867 0 977 0 l 371 0 q 286 -5 315 0 q 209 -80 234 -13 q 166 -178 195 -120 l 129 -166 l 166 54 q 285 62 265 54 q 338 134 315 75 q 433 560 408 307 q 448 747 448 709 q 418 860 448 830 q 348 869 389 869 q 176 819 237 869 q 115 709 115 769 q 137 647 115 671 q 188 623 160 623 q 207 627 199 623 q 231 652 210 629 q 283 675 252 675 q 332 654 311 675 q 353 606 353 633 q 319 540 353 569 q 222 511 284 511 q 92 565 145 511 q 38 696 38 619 q 85 825 38 764 q 216 912 132 886 q 456 930 275 930 l 454 926 l 1072 926 l 1072 884 q 994 869 1044 882 q 951 730 951 846 l 952 196 q 1016 58 952 66 q 1072 55 1037 54 l 1101 -166 m 814 740 q 779 865 814 854 q 761 868 771 868 l 592 868 q 540 785 548 868 q 505 463 514 528 q 435 144 481 280 q 422 87 422 102 q 463 59 422 59 l 770 59 q 795 61 786 59 q 814 179 814 66 l 814 740 z "},"У":{"ha":1050,"x_min":26,"x_max":1085,"o":"m 1085 884 q 1040 878 1057 882 q 983 829 1008 869 q 947 760 970 814 l 696 208 q 585 47 647 97 q 399 -12 511 -12 q 313 10 349 -12 q 268 84 268 39 q 290 132 268 113 q 340 151 313 151 q 406 115 371 151 q 460 80 441 80 q 611 222 547 80 l 348 798 q 309 858 330 840 q 296 867 304 863 q 163 819 214 859 q 102 709 102 769 q 125 647 102 671 q 176 623 148 623 q 195 627 187 623 q 219 652 198 629 q 271 675 240 675 q 320 654 299 675 q 341 606 341 633 q 307 540 341 569 q 210 511 272 511 q 79 565 133 511 q 26 696 26 619 q 73 825 26 764 q 203 912 120 886 q 248 921 220 918 l 248 926 l 289 926 q 444 930 350 930 l 442 926 l 566 926 l 566 885 q 492 834 492 876 q 499 808 492 820 l 683 395 l 825 714 q 852 811 852 773 q 823 867 852 848 q 759 885 806 876 l 759 926 l 1085 926 l 1085 884 z "},"Ф":{"ha":1078,"x_min":46,"x_max":1031,"o":"m 1031 464 q 991 314 1031 370 q 773 181 917 206 q 606 168 710 168 q 630 75 606 98 q 722 43 650 52 l 722 0 l 355 0 l 355 43 q 448 75 425 52 q 471 168 471 98 q 302 181 365 168 q 85 314 159 206 q 46 464 46 370 q 79 602 46 547 q 54 696 54 644 q 101 825 54 764 q 232 912 149 886 q 472 930 291 930 l 471 926 l 722 926 l 722 884 q 629 851 652 875 q 606 758 606 827 q 773 747 710 758 q 991 614 917 718 q 1031 464 1031 555 m 888 464 q 825 630 888 566 q 657 693 762 693 l 606 693 l 606 231 l 657 231 q 793 271 733 231 q 878 378 853 311 q 888 464 888 415 m 471 231 l 471 693 l 418 693 q 315 673 360 693 q 349 654 334 669 q 370 606 370 633 q 335 540 370 569 q 239 511 300 511 q 194 515 216 511 q 190 464 190 491 q 214 351 190 395 q 418 231 276 231 l 471 231 m 138 671 q 302 747 203 727 q 471 758 365 758 q 448 850 471 827 q 437 859 443 855 q 364 869 408 869 q 192 819 253 869 q 131 709 131 769 l 138 671 z "},"Ц":{"ha":1349,"x_min":20,"x_max":1341,"o":"m 1341 -166 l 1297 -190 l 1251 -93 q 1185 -15 1223 -33 q 1079 0 1153 0 l 292 0 l 292 43 q 369 58 318 46 q 413 193 413 77 l 413 735 q 376 865 413 838 q 330 869 355 869 q 157 819 218 869 q 96 709 96 769 q 119 647 96 671 q 170 623 142 623 q 189 627 181 623 q 213 652 192 629 q 264 675 234 675 q 314 654 293 675 q 335 606 335 633 q 300 540 335 569 q 204 511 266 511 q 73 565 127 511 q 20 696 20 619 q 67 825 20 764 q 197 912 114 886 q 437 930 256 930 l 436 926 l 671 926 l 671 884 q 594 869 644 882 q 549 735 549 846 l 549 59 l 1036 59 l 1036 735 q 991 869 1036 848 q 914 884 975 878 l 914 926 l 1294 926 l 1294 884 q 1217 869 1266 882 q 1171 735 1171 846 l 1171 193 q 1236 58 1171 66 q 1294 55 1258 54 l 1341 -166 z "},"Ч":{"ha":1223,"x_min":22,"x_max":1181,"o":"m 1181 0 l 801 0 l 801 43 q 878 58 827 46 q 924 191 924 79 l 924 427 q 695 374 802 374 q 498 408 566 374 q 401 569 401 454 l 401 730 q 359 867 401 842 q 332 869 347 869 q 160 819 221 869 q 99 709 99 769 q 122 647 99 671 q 172 623 144 623 q 191 627 184 623 q 216 652 195 629 q 267 675 237 675 q 317 654 296 675 q 338 606 338 633 q 303 540 338 569 q 207 511 269 511 q 76 565 130 511 q 22 696 22 619 q 70 825 22 764 q 200 912 117 886 q 278 925 227 920 l 278 926 l 286 926 q 440 930 347 930 l 439 926 l 659 926 l 659 884 q 583 869 630 882 q 536 736 536 846 l 536 572 q 700 434 536 434 q 924 485 817 434 l 924 736 q 878 869 924 846 q 801 884 863 878 l 801 926 l 1181 926 l 1181 884 q 1103 869 1153 882 q 1060 736 1060 846 l 1060 191 q 1103 58 1060 79 q 1181 43 1120 51 l 1181 0 z "},"Ъ":{"ha":1110,"x_min":-45,"x_max":1069,"o":"m 1069 273 q 965 66 1069 142 q 736 0 871 0 l 279 0 l 279 43 q 356 58 305 46 q 401 190 401 79 l 401 752 q 390 824 401 792 q 338 869 372 869 q 141 820 218 869 q 0 672 76 777 l -45 693 l 33 926 l 676 926 l 676 920 l 687 920 q 800 942 753 920 q 882 1004 846 964 l 913 977 q 850 913 881 935 q 740 861 808 882 q 586 840 671 840 q 553 840 571 840 q 549 831 551 836 q 538 737 538 803 l 538 538 q 729 564 665 564 q 965 490 870 564 q 1069 273 1069 410 m 931 277 q 707 505 916 513 q 538 479 659 505 l 538 144 q 544 100 538 116 q 610 61 555 69 q 692 58 630 58 q 867 112 803 58 q 931 277 931 166 z "},"Ь":{"ha":1131,"x_min":26,"x_max":1088,"o":"m 1088 273 q 985 66 1088 142 q 754 0 890 0 l 298 0 l 298 43 l 332 47 q 408 94 391 54 q 420 190 420 121 l 420 737 q 408 830 420 805 q 376 866 398 853 q 336 869 358 869 q 164 819 225 869 q 103 709 103 769 q 126 647 103 671 q 176 623 149 623 q 195 627 188 623 q 220 652 199 629 q 271 675 241 675 q 321 654 300 675 q 342 606 342 633 q 307 540 342 569 q 211 511 273 511 q 80 565 134 511 q 26 696 26 619 q 74 825 26 764 q 204 912 121 886 q 444 930 263 930 l 443 926 l 694 926 l 694 884 l 646 880 q 568 831 588 876 q 555 737 555 803 l 555 538 q 747 564 687 564 q 985 490 888 564 q 1088 273 1088 410 m 951 277 q 727 505 902 511 q 555 479 678 505 l 555 144 q 562 100 555 116 q 627 61 574 69 q 712 58 650 58 q 886 112 822 58 q 951 277 951 166 z "},"Э":{"ha":990,"x_min":52,"x_max":931,"o":"m 931 458 q 794 121 931 252 q 452 -10 657 -10 q 77 159 189 -10 q 52 244 52 199 q 131 324 52 324 q 209 277 189 324 q 215 252 215 265 q 202 205 215 233 q 190 161 190 178 q 208 126 190 141 q 319 69 252 90 q 431 48 378 48 q 562 79 492 48 q 770 439 758 165 l 347 439 l 347 497 l 769 497 q 685 753 760 645 q 458 879 597 879 q 193 729 293 879 q 110 586 174 700 l 65 586 l 131 913 l 176 913 l 204 855 q 484 943 320 943 q 654 903 565 943 q 858 723 785 839 q 931 458 931 606 z "},"Я":{"ha":921,"x_min":-387,"x_max":881,"o":"m 881 0 l 484 0 l 484 43 l 534 47 q 610 94 591 52 q 622 191 622 123 l 622 435 l 432 435 l 395 438 l 398 434 l 323 342 q 169 165 230 229 q 22 34 81 74 q -99 -28 -36 -7 q -218 -50 -163 -50 q -344 -17 -301 -50 q -387 57 -387 16 q -367 104 -387 85 q -316 124 -347 124 q -276 114 -294 124 q -235 78 -257 104 q -198 45 -212 53 q -164 38 -184 38 q -81 57 -121 38 q 83 179 -7 93 q 258 369 173 266 l 320 445 l 264 450 q 31 692 31 483 q 121 876 31 817 q 327 926 197 926 l 881 926 l 881 884 q 803 868 853 882 q 758 736 758 845 l 758 191 q 803 59 758 80 q 881 43 821 50 l 881 0 m 622 494 l 622 789 q 552 863 622 846 q 438 870 524 870 q 177 686 177 870 q 394 494 177 494 l 622 494 z "},"ї":{"ha":1158,"x_min":0,"x_max":0,"o":""},"П":{"ha":1318,"x_min":-27,"x_max":1292,"o":"m 1292 930 l 1292 890 l 1268 886 q 1219 870 1236 880 q 1190 840 1202 859 q 1173 799 1178 820 q 1168 734 1168 777 l 1168 197 q 1178 114 1168 142 q 1210 68 1187 85 q 1268 44 1232 51 l 1292 40 l 1292 0 l 909 0 l 909 40 l 932 44 q 982 61 965 50 q 1010 91 998 71 q 1027 132 1023 111 q 1032 197 1032 153 l 1032 865 l 541 865 l 541 197 q 551 113 541 142 q 583 68 561 85 q 641 44 605 51 l 665 40 l 665 0 l 281 0 l 281 40 l 305 44 q 363 67 344 52 q 394 113 383 83 q 406 197 406 143 l 407 741 q 399 822 406 802 q 374 852 393 842 q 283 869 340 869 q 111 819 172 869 q 50 709 50 769 q 72 647 50 671 q 123 623 95 623 q 142 627 134 623 q 166 652 145 629 q 218 675 187 675 q 267 654 246 675 q 288 606 288 633 q 254 540 288 569 q 157 511 219 511 q 26 565 80 511 q -27 696 -27 619 q 20 825 -27 764 q 151 912 67 886 q 391 930 210 930 l 1292 930 z "},"Г":{"ha":1082,"x_min":24,"x_max":1096,"o":"m 1096 694 l 1053 673 q 923 830 1008 785 q 720 870 851 870 q 642 863 677 870 q 579 821 592 852 q 568 742 568 798 l 568 191 q 614 57 568 79 q 701 42 632 50 l 701 0 l 309 0 l 309 42 l 344 47 q 419 95 402 53 q 432 191 432 122 l 432 736 q 428 795 432 771 q 421 822 425 813 q 398 854 413 842 q 334 861 372 861 q 162 811 223 861 q 101 702 101 762 q 124 640 101 664 q 174 615 146 615 q 193 620 186 615 q 218 645 197 622 q 269 667 239 667 q 319 647 298 667 q 340 598 340 626 q 305 532 340 562 q 209 503 271 503 q 78 557 132 503 q 24 689 24 612 q 72 818 24 757 q 202 905 119 879 q 309 920 236 915 l 309 927 l 1046 927 l 1096 694 z "},"Ж":{"ha":1322,"x_min":22,"x_max":1300,"o":"m 1300 178 q 1251 39 1287 84 q 1117 -16 1208 -16 q 1030 7 1066 -16 q 935 192 935 62 q 747 465 935 465 l 734 465 l 734 191 q 779 57 734 79 q 856 42 793 50 l 856 0 l 475 0 l 475 42 q 552 57 503 44 q 597 191 597 78 l 597 465 l 574 465 q 387 192 387 465 q 339 48 387 105 q 204 -16 288 -16 q 37 102 71 -16 q 22 178 26 136 l 74 178 q 143 98 90 98 q 203 123 186 98 q 220 188 220 149 q 239 315 220 258 q 473 494 296 481 q 352 618 400 518 q 304 789 315 697 q 271 833 298 833 q 243 810 250 833 q 224 769 230 774 q 162 746 207 746 q 83 852 83 746 q 227 947 83 947 q 283 935 258 947 q 370 823 343 904 q 410 681 389 751 q 497 543 446 581 q 545 522 518 527 q 597 522 549 522 l 597 736 q 552 870 597 849 q 475 884 536 878 l 475 927 l 856 927 l 856 884 q 779 870 827 882 q 734 736 734 848 l 734 522 l 769 522 q 861 581 819 522 q 913 681 890 619 q 951 823 932 751 q 1040 935 977 904 q 1095 947 1063 947 q 1239 852 1239 947 q 1160 746 1239 746 q 1100 765 1118 746 q 1081 802 1087 777 q 1068 829 1074 826 q 1050 833 1063 833 q 1027 823 1034 833 q 1018 789 1021 813 q 1000 699 1013 739 q 849 494 951 530 q 1082 315 1025 481 q 1101 188 1101 258 q 1134 109 1101 130 q 1179 98 1152 98 q 1251 193 1232 98 l 1300 178 z "},"К":{"ha":1240,"x_min":33,"x_max":1232,"o":"m 1232 178 q 1183 39 1220 84 q 1050 -16 1138 -16 q 961 7 998 -16 q 858 192 858 65 q 825 343 858 278 q 717 449 789 419 q 575 465 674 465 l 576 196 q 587 96 576 123 q 665 47 606 50 l 721 42 l 721 0 l 317 0 l 317 42 q 395 57 345 45 q 440 191 440 79 l 440 736 q 431 816 440 785 q 429 822 431 819 q 406 854 421 842 q 342 861 380 861 q 170 811 231 861 q 109 702 109 762 q 132 640 109 664 q 182 615 155 615 q 201 620 194 615 q 226 645 205 622 q 277 667 247 667 q 327 647 306 667 q 348 598 348 626 q 313 532 348 562 q 217 503 279 503 q 86 557 140 503 q 33 689 33 612 q 80 818 33 757 q 210 905 127 879 q 317 920 244 915 l 317 927 l 721 927 l 721 884 q 671 882 696 883 q 624 870 642 880 q 576 731 578 847 l 575 522 l 651 522 q 712 545 681 522 q 819 681 778 589 q 848 779 839 727 q 899 892 861 848 q 1008 947 943 947 q 1107 934 1078 947 q 1148 849 1148 912 q 1069 749 1148 749 q 1006 768 1025 749 q 990 803 995 781 q 979 829 985 826 q 960 833 972 833 q 937 823 944 833 q 927 789 930 813 q 909 699 922 739 q 758 494 861 530 q 1034 188 1034 437 q 1111 98 1034 98 q 1183 193 1164 98 l 1232 178 z "},"Ш":{"ha":1735,"x_min":24,"x_max":1692,"o":"m 1692 0 l 309 0 l 309 42 q 387 57 336 45 q 432 192 432 78 l 432 735 q 424 814 432 783 l 424 815 l 423 816 q 421 822 422 819 q 398 854 413 842 q 334 861 372 861 q 162 811 223 861 q 101 702 101 762 q 124 640 101 664 q 174 615 146 615 q 193 620 186 615 q 218 645 197 622 q 269 667 239 667 q 319 647 298 667 q 340 598 340 626 q 305 532 340 562 q 209 503 271 503 q 78 557 132 503 q 24 689 24 612 q 72 818 24 757 q 202 905 119 879 q 309 920 236 915 l 309 927 l 690 927 l 690 884 q 613 870 662 882 q 568 735 568 848 l 568 58 l 932 58 l 932 735 q 888 870 932 849 q 810 884 871 878 l 810 927 l 1192 927 l 1192 884 q 1114 870 1163 882 q 1069 735 1069 848 l 1069 58 l 1434 58 l 1434 735 q 1389 870 1434 849 q 1312 884 1373 878 l 1312 927 l 1692 927 l 1692 884 q 1615 870 1664 882 q 1570 735 1570 848 l 1570 192 q 1615 57 1570 79 q 1692 42 1630 50 l 1692 0 z "},"Щ":{"ha":1746,"x_min":24,"x_max":1739,"o":"m 1739 -168 l 1695 -189 q 1653 -94 1668 -132 q 1584 -12 1627 -30 q 1478 0 1556 0 l 309 0 l 309 42 q 387 57 336 45 q 432 192 432 78 l 432 735 q 424 814 432 783 q 421 822 422 819 q 398 854 413 842 q 334 861 372 861 q 162 811 223 861 q 101 702 101 762 q 124 640 101 664 q 174 615 146 615 q 193 620 186 615 q 218 645 197 622 q 269 667 239 667 q 319 647 298 667 q 340 598 340 626 q 305 532 340 562 q 209 503 271 503 q 78 557 132 503 q 24 689 24 612 q 72 818 24 757 q 202 905 119 879 q 309 920 236 915 l 309 927 l 690 927 l 690 884 q 613 870 662 882 q 568 735 568 848 l 568 58 l 932 58 l 932 735 q 888 870 932 849 q 810 884 871 878 l 810 927 l 1192 927 l 1192 884 q 1114 870 1163 882 q 1069 735 1069 848 l 1069 58 l 1434 58 l 1434 735 q 1389 870 1434 849 q 1312 884 1373 878 l 1312 927 l 1692 927 l 1692 884 q 1615 870 1664 882 q 1570 735 1570 848 l 1570 192 q 1578 108 1570 134 q 1634 56 1592 61 q 1692 54 1655 53 l 1739 -168 z "},"Ы":{"ha":1520,"x_min":31,"x_max":1479,"o":"m 1107 274 q 1002 66 1107 143 q 772 0 908 0 l 315 0 l 315 42 l 349 47 q 425 95 408 53 q 437 189 437 121 l 437 738 q 425 831 437 806 q 404 860 418 848 q 340 867 378 867 q 168 818 229 867 q 107 708 107 768 q 130 646 107 670 q 180 621 153 621 q 199 626 192 621 q 224 651 203 628 q 275 673 245 673 q 325 653 304 673 q 346 604 346 632 q 311 538 346 568 q 215 509 277 509 q 84 564 138 509 q 31 695 31 618 q 78 824 31 763 q 208 911 125 885 q 315 926 242 921 l 315 927 l 343 927 q 448 929 389 929 l 448 927 l 713 927 l 713 884 l 662 880 q 586 833 605 877 q 574 738 574 804 l 574 538 q 765 565 705 565 q 1002 491 907 565 q 1107 274 1107 411 m 1479 0 l 1112 0 l 1112 42 q 1183 58 1135 45 q 1227 188 1227 79 l 1227 739 q 1183 869 1227 848 q 1112 884 1165 877 l 1112 927 l 1479 927 l 1479 884 q 1407 869 1454 882 q 1362 739 1362 848 l 1362 188 q 1407 58 1362 79 q 1479 42 1424 50 l 1479 0 m 968 278 q 744 507 947 507 q 574 479 696 507 l 574 144 q 581 101 574 116 q 646 61 591 69 q 728 57 667 57 q 904 112 840 57 q 968 278 968 168 z "},"Ю":{"ha":1693,"x_min":41,"x_max":1635,"o":"m 1635 460 q 1534 161 1635 282 q 1182 -11 1393 -11 q 850 126 972 -11 q 732 470 732 258 l 585 470 l 585 196 q 629 57 585 79 q 707 42 644 50 l 707 0 l 326 0 l 326 42 q 403 57 353 45 q 448 196 448 79 l 448 731 q 438 821 448 786 l 437 822 q 414 854 429 842 q 351 861 388 861 q 178 811 239 861 q 117 702 117 762 q 140 640 117 664 q 191 615 163 615 q 210 620 202 615 q 234 645 213 622 q 286 667 255 667 q 335 647 314 667 q 356 598 356 626 q 321 532 356 562 q 225 503 287 503 q 94 557 148 503 q 41 689 41 612 q 88 818 41 757 q 218 905 135 879 q 326 920 252 915 l 326 927 l 707 927 l 707 884 q 629 870 678 882 q 585 731 585 848 l 585 528 l 735 528 q 883 828 762 712 q 1187 945 1004 945 q 1518 804 1396 945 q 1635 460 1635 673 m 1442 739 q 1185 880 1346 880 q 951 745 1025 880 q 892 465 892 639 q 949 183 892 290 q 1183 48 1023 48 q 1416 178 1341 48 q 1474 452 1474 282 l 1442 739 z "},"а":{"ha":680,"x_min":-33,"x_max":713,"o":"m 713 0 l 433 0 l 433 31 q 484 43 471 37 q 512 81 512 56 q 501 123 512 96 l 451 253 l 193 253 q 142 93 142 117 q 149 66 142 79 q 184 39 160 47 q 231 31 194 36 l 231 0 l -33 0 l -33 31 q 17 47 -1 36 q 123 240 58 70 l 296 681 l 389 681 l 602 145 q 627 84 620 97 q 675 40 647 49 q 713 31 689 35 l 713 0 m 433 296 l 319 597 l 208 296 l 433 296 z "},"б":{"ha":648,"x_min":31,"x_max":625,"o":"m 625 200 q 546 47 625 101 q 375 0 477 0 l 43 0 l 43 31 q 100 42 62 33 q 133 144 133 58 l 133 538 q 123 610 133 589 q 68 647 110 644 l 31 650 l 31 681 l 528 681 l 600 509 l 568 494 q 451 602 501 573 q 297 639 389 639 q 243 608 257 639 q 233 541 233 587 l 233 404 q 367 418 292 418 q 543 361 468 418 q 625 200 625 298 m 524 203 q 475 326 524 277 q 351 375 426 375 q 233 361 280 375 l 233 106 q 237 74 233 85 q 286 45 245 50 q 347 42 302 42 q 524 203 524 42 z "},"в":{"ha":736,"x_min":31,"x_max":703,"o":"m 703 201 q 682 117 703 155 q 401 0 622 0 l 31 0 l 31 31 l 56 34 q 113 72 100 39 q 121 144 121 91 l 121 537 q 88 638 121 622 q 31 650 73 646 l 31 681 l 388 681 q 646 590 591 681 q 664 519 664 557 q 519 379 664 414 q 582 361 559 370 q 703 201 703 315 m 562 516 q 355 642 562 642 q 282 639 300 642 q 227 602 236 631 q 221 557 221 585 l 221 393 l 337 393 q 481 410 434 393 q 562 516 562 438 m 589 206 q 514 333 589 300 q 347 350 475 350 l 221 350 l 221 154 q 233 73 221 91 q 351 41 255 41 q 574 136 530 41 q 589 206 589 168 z "},"г":{"ha":599,"x_min":31,"x_max":609,"o":"m 609 509 l 577 494 q 481 610 544 577 q 333 639 429 639 q 275 634 301 639 q 229 603 239 626 q 221 545 221 586 l 221 140 q 255 42 221 58 q 319 31 268 36 l 319 0 l 31 0 l 31 31 l 56 34 q 111 70 99 39 q 121 140 121 90 l 121 541 q 111 611 121 591 q 56 647 99 642 l 31 650 l 31 681 l 572 681 l 609 509 z "},"д":{"ha":716,"x_min":-5,"x_max":709,"o":"m 709 -123 l 675 -123 q 642 -23 659 -40 q 538 0 619 0 l 174 0 q 111 -4 132 0 q 54 -60 73 -9 q 23 -130 43 -88 l -5 -123 l 23 39 q 110 45 95 39 q 149 98 132 56 q 219 412 200 227 q 231 549 231 522 q 199 639 231 623 q 140 650 186 646 l 140 681 l 689 681 l 689 650 q 631 639 668 648 q 599 537 599 623 l 600 144 q 647 42 600 49 q 689 40 663 39 l 709 -123 m 499 544 q 475 636 499 629 q 460 638 468 638 l 335 638 q 297 578 304 638 q 272 340 279 388 q 221 106 254 206 q 211 65 211 77 q 240 43 211 43 l 467 43 q 485 45 479 43 q 499 131 499 49 l 499 544 z "},"е":{"ha":720,"x_min":31,"x_max":705,"o":"m 705 213 l 614 0 l 31 0 l 31 31 l 56 34 q 113 72 100 39 q 121 144 121 91 l 121 537 q 88 638 121 622 q 31 650 73 646 l 31 681 l 602 681 l 671 501 l 639 488 q 507 603 570 570 q 335 638 439 638 q 254 626 276 638 q 221 555 221 608 l 221 385 l 297 385 q 390 416 366 385 q 418 512 410 439 l 452 512 l 452 213 l 418 213 q 387 309 411 279 q 294 342 358 342 l 221 342 l 221 131 q 233 71 221 87 q 334 43 257 43 q 529 88 451 43 q 674 227 597 127 l 705 213 z "},"ж":{"ha":971,"x_min":16,"x_max":956,"o":"m 956 131 q 919 28 945 62 q 821 -12 887 -12 q 757 5 783 -12 q 687 141 687 45 q 549 342 687 342 l 538 342 l 538 140 q 572 42 538 58 q 629 31 583 36 l 629 0 l 349 0 l 349 31 q 406 42 370 33 q 439 140 439 57 l 439 342 l 422 342 q 284 141 284 342 q 249 35 284 77 q 150 -12 212 -12 q 27 75 52 -12 q 16 131 19 100 l 54 131 q 105 72 66 72 q 150 91 138 72 q 162 138 162 110 q 176 231 162 190 q 347 363 218 353 q 259 454 294 381 q 223 581 231 512 q 199 612 219 612 q 178 595 184 612 q 165 565 170 569 q 119 548 152 548 q 61 626 61 548 q 167 696 61 696 q 208 687 190 696 q 272 605 252 664 q 301 500 286 552 q 366 399 327 427 q 399 384 381 387 q 439 384 404 384 l 439 541 q 406 639 439 624 q 349 650 394 646 l 349 681 l 629 681 l 629 650 q 572 639 608 648 q 538 541 538 623 l 538 384 l 565 384 q 633 427 602 384 q 671 500 654 455 q 699 605 685 552 q 764 687 718 664 q 804 696 781 696 q 910 626 910 696 q 852 548 910 548 q 808 562 822 548 q 794 589 799 570 q 785 609 789 607 q 772 612 781 612 q 755 605 760 612 q 748 581 750 597 q 735 513 744 543 q 624 363 699 389 q 795 231 753 353 q 809 138 809 190 q 833 80 809 95 q 866 72 846 72 q 919 142 905 72 l 956 131 z "},"з":{"ha":670,"x_min":40,"x_max":628,"o":"m 628 202 q 530 37 628 93 q 335 -8 453 -8 q 144 28 222 -8 q 40 176 40 77 q 59 224 40 205 q 106 243 77 243 q 149 225 132 243 q 165 182 165 207 q 162 155 165 172 q 158 130 158 139 q 224 58 158 83 q 330 39 273 39 q 455 75 402 39 q 516 184 516 117 q 424 338 516 301 q 354 349 395 349 l 227 349 l 225 392 l 353 392 q 449 425 420 392 q 477 526 477 458 q 432 617 477 585 q 331 646 391 646 q 196 606 245 646 q 117 488 159 575 l 84 500 l 114 681 l 150 681 l 162 646 q 351 694 241 694 q 504 648 438 694 q 581 515 581 598 q 509 377 581 410 q 598 311 566 363 q 628 202 628 262 z "},"и":{"ha":800,"x_min":31,"x_max":769,"o":"m 769 0 l 489 0 l 489 31 q 546 42 509 33 q 579 144 579 57 l 581 446 l 221 167 l 221 144 q 254 42 221 60 q 311 31 265 37 l 311 0 l 31 0 l 31 31 q 88 42 50 33 q 121 141 121 57 l 121 541 q 88 639 121 624 q 31 650 77 646 l 31 681 l 311 681 l 311 650 q 254 639 290 648 q 221 541 221 623 l 221 231 l 581 509 q 576 581 578 570 q 546 639 570 627 q 489 650 534 646 l 489 681 l 769 681 l 769 650 q 712 639 748 648 q 680 541 680 623 l 680 141 q 712 42 680 58 q 769 31 724 37 l 769 0 z "},"й":{"ha":800,"x_min":31,"x_max":769,"o":"m 591 855 q 538 773 591 809 q 402 736 484 736 q 266 773 320 736 q 211 855 211 809 q 260 905 211 905 q 310 863 310 905 q 308 846 310 857 q 305 830 305 835 q 340 785 305 799 q 402 773 367 773 q 463 785 437 773 q 498 830 498 800 q 495 847 498 836 q 493 863 493 858 q 543 905 493 905 q 578 891 565 905 q 591 855 591 878 m 769 0 l 489 0 l 489 31 q 546 42 509 33 q 579 144 579 57 l 581 446 l 220 167 q 224 99 223 109 q 254 42 231 54 q 311 31 265 37 l 311 0 l 31 0 l 31 31 q 88 42 50 33 q 121 141 121 57 l 121 541 q 88 639 121 624 q 31 650 77 646 l 31 681 l 311 681 l 311 650 q 254 639 290 648 q 221 537 221 623 l 220 231 l 581 509 q 576 581 578 570 q 546 639 570 627 q 489 650 534 646 l 489 681 l 769 681 l 769 650 q 712 639 748 648 q 680 541 680 623 l 680 141 q 712 42 680 58 q 769 31 724 37 l 769 0 z "},"к":{"ha":709,"x_min":31,"x_max":703,"o":"m 703 131 q 667 28 694 62 q 569 -12 634 -12 q 504 5 530 -12 q 428 141 428 48 q 404 252 428 204 q 324 330 377 309 q 220 342 293 342 l 221 144 q 229 71 221 91 q 286 34 243 37 l 327 31 l 327 0 l 31 0 l 31 31 q 88 42 50 33 q 121 140 121 58 l 121 541 q 88 639 121 623 q 31 650 77 646 l 31 681 l 327 681 l 327 650 q 292 648 309 648 q 256 639 269 646 q 221 537 222 622 l 220 384 l 276 384 q 321 399 298 384 q 399 500 370 433 q 420 572 414 534 q 458 656 431 623 q 538 696 490 696 q 611 686 590 696 q 642 624 642 670 q 583 551 642 551 q 537 564 551 551 q 525 590 529 573 q 516 609 521 607 q 503 612 512 612 q 486 605 492 612 q 479 581 481 597 q 465 513 475 543 q 355 363 431 389 q 557 138 557 321 q 614 72 557 72 q 667 142 652 72 l 703 131 z "},"л":{"ha":758,"x_min":5,"x_max":728,"o":"m 728 0 l 448 0 l 448 31 q 505 42 468 33 q 538 140 538 58 l 538 545 q 513 636 538 630 q 499 638 507 638 l 377 638 q 338 578 345 638 q 321 338 330 459 q 271 106 307 200 q 207 23 251 54 q 106 -9 162 -9 q 5 66 5 -9 q 22 118 5 97 q 70 140 40 140 q 135 110 123 140 q 145 82 138 100 q 170 72 150 72 q 197 94 183 72 q 252 309 232 150 q 269 537 269 434 q 237 639 269 623 q 179 650 225 646 l 179 681 l 728 681 l 728 650 q 671 639 707 648 q 638 541 638 623 l 638 140 q 671 42 638 58 q 728 31 682 36 l 728 0 z "},"м":{"ha":920,"x_min":26,"x_max":895,"o":"m 895 0 l 614 0 l 614 31 l 639 34 q 696 70 682 39 q 704 141 704 90 l 704 610 l 453 0 l 408 0 l 179 622 l 179 141 q 213 42 179 58 q 279 31 227 36 l 279 0 l 26 0 l 26 31 q 89 42 48 33 q 122 141 122 58 l 122 541 q 114 611 122 591 q 57 647 100 642 l 33 650 l 33 681 l 265 681 l 457 166 l 666 681 l 895 681 l 895 650 q 837 638 874 648 q 804 541 804 622 l 804 141 q 837 43 804 60 q 895 31 850 36 l 895 0 z "},"н":{"ha":800,"x_min":31,"x_max":769,"o":"m 769 0 l 489 0 l 489 31 l 514 34 q 570 70 557 39 q 579 141 579 90 l 579 345 l 221 345 l 221 141 q 254 43 221 60 q 311 31 267 36 l 311 0 l 31 0 l 31 31 l 56 34 q 113 70 99 39 q 121 141 121 90 l 121 541 q 113 611 121 591 q 56 647 99 642 l 31 650 l 31 681 l 311 681 l 311 650 q 254 638 292 648 q 221 541 221 622 l 221 388 l 579 388 l 579 541 q 570 611 579 591 q 514 647 557 642 l 489 650 l 489 681 l 769 681 l 769 650 q 712 638 749 648 q 680 541 680 622 l 680 141 q 712 43 680 60 q 769 31 725 36 l 769 0 z "},"о":{"ha":800,"x_min":44,"x_max":758,"o":"m 758 338 q 656 88 758 184 q 399 -8 554 -8 q 146 91 248 -8 q 44 342 44 190 q 150 593 44 492 q 404 694 255 694 q 658 594 558 694 q 758 338 758 493 m 640 332 q 587 545 640 460 q 402 646 524 646 q 218 550 283 646 q 162 342 162 467 q 216 132 162 216 q 401 35 281 35 q 585 127 519 35 q 640 332 640 209 z "},"п":{"ha":780,"x_min":31,"x_max":749,"o":"m 749 0 l 469 0 l 469 31 q 526 42 489 33 q 559 141 559 57 l 559 638 l 221 638 l 221 141 q 254 42 221 58 q 311 31 265 37 l 311 0 l 31 0 l 31 31 q 88 42 50 33 q 121 141 121 57 l 121 541 q 88 639 121 624 q 31 650 77 646 l 31 681 l 749 681 l 749 650 q 692 639 728 648 q 659 541 659 623 l 659 141 q 692 42 659 58 q 749 31 703 37 l 749 0 z "},"р":{"ha":643,"x_min":31,"x_max":613,"o":"m 613 490 q 590 398 613 441 q 362 292 532 292 l 221 292 l 221 144 q 229 71 221 91 q 286 34 243 38 l 323 31 l 323 0 l 31 0 l 31 31 l 56 34 q 113 72 100 39 q 121 144 121 91 l 121 537 q 113 609 121 590 q 56 647 100 642 l 31 650 l 31 681 l 363 681 q 536 640 469 681 q 613 490 613 590 m 511 487 q 419 629 511 598 q 335 639 387 639 q 274 636 290 639 q 227 608 233 630 q 221 575 221 597 l 221 334 l 346 334 q 420 345 391 334 q 487 400 463 359 q 511 487 511 440 z "},"с":{"ha":741,"x_min":44,"x_max":703,"o":"m 703 159 q 397 -8 591 -8 q 144 88 244 -8 q 44 337 44 184 q 97 532 44 446 q 249 664 151 617 q 373 694 313 694 q 579 630 494 694 l 600 672 l 633 672 l 681 431 l 648 431 q 587 536 629 467 q 392 646 513 646 q 216 543 282 646 q 162 338 162 455 q 317 58 162 127 q 412 35 367 35 q 524 62 465 35 q 620 132 582 90 q 659 183 636 150 l 703 159 z "},"т":{"ha":620,"x_min":-33,"x_max":656,"o":"m 656 505 l 621 493 q 401 643 537 643 q 368 633 376 643 q 359 599 359 624 l 359 144 q 368 71 359 92 q 425 34 382 37 l 464 31 l 464 0 l 155 0 l 155 31 l 195 34 q 252 71 237 37 q 260 144 260 92 l 260 603 q 216 643 260 643 q 0 493 87 643 l -33 505 l 20 681 l 600 681 l 656 505 z "},"у":{"ha":585,"x_min":-5,"x_max":611,"o":"m 611 650 q 578 646 590 648 q 536 610 554 639 q 509 559 526 598 l 326 153 q 243 34 288 72 q 106 -9 188 -9 q 42 8 70 -9 q 9 62 9 28 q 26 97 9 83 q 62 111 42 111 q 110 85 85 111 q 151 60 136 60 q 262 164 215 60 l 69 587 q 41 631 56 618 q -5 650 26 644 l -5 681 l 229 681 l 229 651 q 175 614 175 644 q 179 594 175 603 l 315 290 l 420 526 q 439 597 439 569 q 418 637 439 624 q 371 651 406 644 l 371 681 l 611 681 l 611 650 z "},"ф":{"ha":793,"x_min":33,"x_max":758,"o":"m 758 341 q 730 231 758 273 q 569 133 675 152 q 446 123 524 123 q 464 56 446 73 q 530 31 479 38 l 530 0 l 261 0 l 261 31 q 330 56 313 38 q 346 123 346 73 q 223 133 269 123 q 62 231 117 152 q 33 341 33 273 q 62 451 33 408 q 223 549 117 529 q 346 557 269 557 q 329 625 346 608 q 261 650 312 643 l 261 681 l 530 681 l 530 650 q 463 625 480 643 q 446 557 446 608 q 569 549 524 557 q 730 451 675 529 q 758 341 758 408 m 652 341 q 606 463 652 416 q 484 509 560 509 l 446 509 l 446 171 l 484 171 q 583 200 538 171 q 646 279 628 229 q 652 341 652 305 m 346 171 l 346 509 l 309 509 q 185 463 232 509 q 139 341 139 416 q 157 258 139 290 q 309 171 203 171 l 346 171 z "},"х":{"ha":720,"x_min":-25,"x_max":755,"o":"m 755 0 l 427 0 l 427 31 q 476 39 452 35 q 508 72 508 47 q 484 125 508 93 l 345 312 l 191 122 q 176 84 176 105 q 252 31 176 35 l 252 0 l -25 0 l -25 31 q 77 84 38 54 q 155 166 106 106 l 314 353 l 142 572 q 89 628 109 614 q 16 650 62 646 l 16 681 l 326 681 l 326 650 q 249 612 249 646 q 267 572 249 597 l 391 410 l 508 560 q 528 607 528 586 q 458 650 528 648 l 458 681 l 727 681 l 727 650 q 658 630 681 642 q 599 586 629 617 q 550 532 572 559 l 419 371 l 611 121 q 672 58 647 74 q 755 31 703 37 l 755 0 z "},"ц":{"ha":809,"x_min":31,"x_max":803,"o":"m 803 -123 l 770 -139 l 738 -69 q 688 -12 717 -25 q 611 0 665 0 l 31 0 l 31 31 q 88 42 50 33 q 121 141 121 57 l 121 541 q 88 639 121 624 q 31 650 77 646 l 31 681 l 311 681 l 311 650 q 254 639 290 648 q 221 541 221 623 l 221 43 l 579 43 l 579 541 q 546 639 579 624 q 489 650 534 646 l 489 681 l 769 681 l 769 650 q 712 639 748 648 q 680 541 680 623 l 680 141 q 726 42 680 49 q 769 40 742 39 l 803 -123 z "},"ч":{"ha":715,"x_min":20,"x_max":684,"o":"m 684 0 l 404 0 l 404 31 q 460 42 424 33 q 494 140 494 58 l 494 314 q 327 276 404 276 q 182 300 231 276 q 110 419 110 334 l 110 537 q 77 639 110 623 q 20 650 65 646 l 20 681 l 300 681 l 300 650 q 243 639 279 648 q 210 541 210 623 l 210 420 q 330 320 210 320 q 494 357 416 320 l 494 541 q 460 639 494 623 q 404 650 449 646 l 404 681 l 684 681 l 684 650 q 627 639 663 648 q 594 541 594 623 l 594 140 q 627 42 594 58 q 684 31 638 37 l 684 0 z "},"ш":{"ha":1078,"x_min":31,"x_max":1046,"o":"m 1046 0 l 31 0 l 31 31 q 88 42 50 33 q 121 141 121 57 l 121 541 q 88 639 121 624 q 31 650 77 646 l 31 681 l 311 681 l 311 650 q 254 639 290 648 q 221 541 221 623 l 221 43 l 489 43 l 489 541 q 456 639 489 624 q 399 650 444 646 l 399 681 l 680 681 l 680 650 q 622 639 659 648 q 589 541 589 623 l 589 43 l 857 43 l 857 541 q 825 639 857 624 q 768 650 812 646 l 768 681 l 1046 681 l 1046 650 q 990 639 1026 648 q 957 541 957 623 l 957 141 q 990 42 957 58 q 1046 31 1001 37 l 1046 0 z "},"щ":{"ha":1087,"x_min":31,"x_max":1081,"o":"m 1081 -123 l 1049 -139 q 1018 -69 1029 -97 q 968 -9 1000 -22 q 890 0 947 0 l 31 0 l 31 31 q 88 42 50 33 q 121 141 121 57 l 121 541 q 88 639 121 624 q 31 650 77 646 l 31 681 l 311 681 l 311 650 q 254 639 290 648 q 221 541 221 623 l 221 43 l 489 43 l 489 541 q 456 639 489 624 q 399 650 444 646 l 399 681 l 680 681 l 680 650 q 622 639 659 648 q 589 541 589 623 l 589 43 l 857 43 l 857 541 q 825 639 857 624 q 768 650 812 646 l 768 681 l 1046 681 l 1046 650 q 990 639 1026 648 q 957 541 957 623 l 957 141 q 963 79 957 98 q 1004 41 973 45 q 1046 40 1020 39 l 1081 -123 z "},"ъ":{"ha":817,"x_min":-33,"x_max":787,"o":"m 787 201 q 709 49 787 105 q 541 0 642 0 l 205 0 l 205 31 q 262 42 225 33 q 294 139 294 58 l 294 553 q 286 606 294 583 q 249 639 274 639 q 104 603 161 639 q 0 494 56 572 l -33 509 l 25 681 l 497 681 l 497 650 l 460 647 q 404 612 418 644 q 395 542 395 591 l 395 395 q 536 415 489 415 q 709 361 640 415 q 787 201 787 302 m 685 204 q 640 325 685 277 q 520 372 594 372 q 395 353 485 372 l 395 106 q 399 74 395 85 q 448 45 408 50 q 509 42 464 42 q 638 82 591 42 q 685 204 685 123 z "},"ы":{"ha":917,"x_min":31,"x_max":886,"o":"m 886 0 l 616 0 l 616 31 q 669 43 634 33 q 701 138 701 58 l 701 543 q 669 638 701 623 q 616 650 656 644 l 616 681 l 886 681 l 886 650 q 833 638 868 648 q 801 543 801 623 l 801 138 q 833 43 801 58 q 886 31 846 37 l 886 0 m 613 201 q 536 49 613 105 q 367 0 467 0 l 31 0 l 31 31 l 56 34 q 111 70 99 39 q 121 139 121 89 l 121 542 q 111 611 121 591 q 56 647 99 642 l 31 650 l 31 681 l 323 681 l 323 650 l 286 647 q 231 612 244 644 q 221 542 221 591 l 221 395 q 362 415 318 415 q 536 361 465 415 q 613 201 613 302 m 511 204 q 466 325 511 277 q 346 372 420 372 q 221 353 311 372 l 221 106 q 227 74 221 85 q 274 45 233 50 q 335 42 290 42 q 464 82 416 42 q 511 204 511 123 z "},"ь":{"ha":643,"x_min":31,"x_max":613,"o":"m 613 201 q 536 49 613 105 q 367 0 467 0 l 31 0 l 31 31 l 56 34 q 111 70 99 39 q 121 139 121 89 l 121 542 q 111 611 121 591 q 56 647 99 642 l 31 650 l 31 681 l 323 681 l 323 650 l 286 647 q 231 612 244 644 q 221 542 221 591 l 221 395 q 362 415 318 415 q 536 361 465 415 q 613 201 613 302 m 511 204 q 466 325 511 277 q 346 372 420 372 q 221 353 311 372 l 221 106 q 227 74 221 85 q 274 45 233 50 q 335 42 290 42 q 464 82 416 42 q 511 204 511 123 z "},"э":{"ha":729,"x_min":38,"x_max":685,"o":"m 685 337 q 585 88 685 184 q 332 -8 484 -8 q 57 117 138 -8 q 38 179 38 146 q 96 237 38 237 q 154 204 138 237 q 158 184 158 195 q 149 151 158 172 q 139 119 139 130 q 153 93 139 104 q 233 50 184 66 q 317 35 277 35 q 414 58 362 35 q 567 323 557 122 l 255 323 l 255 366 l 566 366 q 504 554 559 475 q 337 646 439 646 q 142 536 216 646 q 80 431 127 515 l 48 431 l 96 672 l 129 672 l 150 630 q 355 694 235 694 q 481 664 416 694 q 631 532 578 617 q 685 337 685 446 z "},"ю":{"ha":1035,"x_min":31,"x_max":993,"o":"m 993 338 q 919 118 993 207 q 660 -8 814 -8 q 416 93 506 -8 q 329 345 329 190 l 221 345 l 221 144 q 254 42 221 58 q 311 31 265 36 l 311 0 l 31 0 l 31 31 q 88 42 50 33 q 121 144 121 58 l 121 537 q 88 639 121 623 q 31 650 77 646 l 31 681 l 311 681 l 311 650 q 254 639 290 648 q 221 537 221 623 l 221 388 l 332 388 q 440 609 351 524 q 664 694 530 694 q 907 591 817 694 q 993 338 993 494 m 875 332 q 834 542 875 463 q 663 646 781 646 q 490 547 545 646 q 447 342 447 469 q 489 135 447 213 q 661 35 543 35 q 831 131 777 35 q 875 332 875 207 z "},"я":{"ha":736,"x_min":8,"x_max":707,"o":"m 707 0 l 416 0 l 416 31 l 452 34 q 508 70 494 38 q 517 140 517 90 l 517 321 l 378 321 q 323 312 332 321 q 260 77 267 256 q 221 9 258 33 q 142 -12 188 -12 q 14 92 40 -12 q 8 132 8 115 l 45 131 q 90 72 57 72 q 138 91 122 72 q 154 138 147 103 q 254 331 183 273 q 81 509 81 355 q 148 644 81 600 q 300 681 204 681 l 707 681 l 707 650 q 650 638 687 648 q 617 541 617 622 l 617 140 q 650 43 617 60 q 707 31 663 36 l 707 0 m 517 363 l 517 581 q 465 635 517 623 q 382 640 444 640 q 189 505 189 640 q 349 363 189 363 l 517 363 z "},"a":{"ha":680,"x_min":-33,"x_max":713,"o":"m 713 0 l 433 0 l 433 31 q 484 43 471 37 q 512 81 512 56 q 501 123 512 96 l 451 253 l 193 253 q 142 93 142 117 q 149 66 142 79 q 184 39 160 47 q 231 31 194 36 l 231 0 l -33 0 l -33 31 q 17 47 -3 36 q 123 240 58 70 l 296 681 l 389 681 l 602 145 q 627 84 620 97 q 675 40 647 49 q 713 31 689 35 l 713 0 m 433 296 l 319 597 l 208 296 l 433 296 z "},"b":{"ha":741,"x_min":31,"x_max":703,"o":"m 703 201 q 682 117 703 155 q 401 0 622 0 l 31 0 l 31 31 l 56 34 q 113 72 100 39 q 121 144 121 91 l 121 537 q 88 638 121 622 q 31 650 73 646 l 31 681 l 388 681 q 646 590 591 681 q 664 519 664 557 q 519 379 664 414 q 582 361 559 370 q 703 201 703 315 m 562 516 q 355 642 562 642 q 282 639 300 642 q 227 602 236 631 q 221 557 221 585 l 221 393 l 337 393 q 481 410 434 393 q 562 516 562 438 m 589 206 q 514 333 589 300 q 347 350 475 350 l 221 350 l 221 154 q 233 73 221 91 q 351 41 255 41 q 574 136 530 41 q 589 206 589 168 z "},"c":{"ha":741,"x_min":44,"x_max":703,"o":"m 703 159 q 397 -9 591 -9 q 144 88 245 -9 q 44 337 44 184 q 97 532 44 446 q 249 664 151 617 q 373 694 313 694 q 579 630 494 694 l 600 672 l 633 672 l 681 431 l 648 431 q 587 536 629 467 q 392 646 513 646 q 216 543 282 646 q 162 338 162 455 q 317 58 162 127 q 412 35 367 35 q 524 62 465 35 q 620 132 582 90 q 659 183 636 150 l 703 159 z "},"d":{"ha":800,"x_min":31,"x_max":752,"o":"m 752 335 q 691 136 752 223 q 522 19 628 45 q 342 0 450 0 l 31 0 l 31 31 l 56 34 q 113 72 100 39 q 121 144 121 91 l 121 537 q 113 609 121 590 q 56 647 100 642 l 31 650 l 31 681 l 336 681 q 568 642 481 681 q 725 475 678 594 q 752 335 752 406 m 634 342 q 620 448 634 399 q 340 640 562 640 q 233 615 253 640 q 221 548 221 600 l 221 129 q 235 62 221 77 q 338 41 257 41 q 557 120 480 41 q 634 342 634 200 z "},"e":{"ha":720,"x_min":31,"x_max":705,"o":"m 705 213 l 614 0 l 31 0 l 31 31 l 56 34 q 113 72 100 39 q 121 144 121 91 l 121 537 q 88 638 121 622 q 31 650 73 646 l 31 681 l 602 681 l 671 501 l 639 488 q 507 603 570 570 q 335 638 439 638 q 254 626 276 638 q 221 555 221 608 l 221 385 l 297 385 q 390 416 366 385 q 418 512 410 439 l 452 512 l 452 213 l 418 213 q 387 309 411 279 q 294 342 358 342 l 221 342 l 221 131 q 233 71 221 87 q 334 43 257 43 q 529 88 451 43 q 674 227 597 127 l 705 213 z "},"f":{"ha":640,"x_min":31,"x_max":654,"o":"m 654 509 l 622 494 q 495 603 558 570 q 333 639 427 639 q 275 634 302 639 q 229 603 239 626 q 221 545 221 587 l 221 385 l 292 385 q 387 414 361 385 q 416 509 407 438 l 447 509 l 447 214 l 416 214 q 382 310 407 283 q 288 342 354 342 l 221 342 l 221 140 q 255 42 221 58 q 319 31 268 36 l 319 0 l 31 0 l 31 31 l 56 34 q 111 70 99 39 q 121 140 121 89 l 121 541 q 111 611 121 591 q 56 647 99 642 l 31 650 l 31 681 l 582 681 l 654 509 z "},"g":{"ha":800,"x_min":44,"x_max":778,"o":"m 778 293 q 724 280 757 290 q 695 180 695 263 l 695 0 l 648 0 l 616 69 q 389 -9 517 -9 q 141 92 237 -9 q 44 342 44 192 q 135 587 44 489 q 379 694 235 694 q 574 633 486 694 l 594 681 l 625 681 l 686 469 l 648 458 q 538 586 586 546 q 385 646 465 646 q 212 543 272 646 q 162 336 162 457 q 220 130 162 213 q 403 35 285 35 q 541 77 485 35 q 603 200 603 121 q 577 270 603 249 q 505 294 556 288 l 505 324 l 778 324 l 778 293 z "},"h":{"ha":800,"x_min":31,"x_max":769,"o":"m 769 0 l 489 0 l 489 31 l 514 34 q 570 70 557 39 q 579 141 579 90 l 579 345 l 221 345 l 221 141 q 254 43 221 60 q 311 31 267 36 l 311 0 l 31 0 l 31 31 l 56 34 q 113 70 99 39 q 121 141 121 90 l 121 541 q 113 611 121 591 q 56 647 99 642 l 31 650 l 31 681 l 311 681 l 311 650 q 254 638 292 648 q 221 541 221 622 l 221 388 l 579 388 l 579 541 q 570 611 579 591 q 514 647 557 642 l 489 650 l 489 681 l 769 681 l 769 650 q 712 638 749 648 q 680 541 680 622 l 680 141 q 712 43 680 60 q 769 31 725 36 l 769 0 z "},"i":{"ha":340,"x_min":31,"x_max":301,"o":"m 301 0 l 31 0 l 31 31 q 84 43 49 33 q 117 138 117 58 l 117 543 q 84 638 117 623 q 31 650 71 644 l 31 681 l 301 681 l 301 650 q 248 638 283 648 q 216 543 216 623 l 216 138 q 248 43 216 58 q 301 31 261 37 l 301 0 z "},"j":{"ha":600,"x_min":-19,"x_max":567,"o":"m 567 650 q 509 638 547 648 q 477 537 477 622 l 477 260 q 460 105 477 141 q 228 -9 407 -9 q 3 101 58 -9 q -19 186 -19 143 q 0 250 -19 224 q 56 275 19 275 q 110 221 110 275 q 87 175 110 197 q 65 133 65 154 q 117 60 65 88 q 209 35 160 35 q 355 119 320 35 q 377 298 377 170 l 377 542 q 368 611 377 591 q 312 647 355 642 l 288 650 l 288 681 l 567 681 l 567 650 z "},"k":{"ha":720,"x_min":31,"x_max":750,"o":"m 750 0 l 442 0 l 442 31 q 492 39 467 35 q 521 73 521 47 q 498 129 521 92 l 337 387 l 221 283 l 221 140 q 231 69 221 90 q 286 34 244 37 l 327 31 l 327 0 l 31 0 l 31 31 l 56 34 q 111 70 99 39 q 121 141 121 90 l 121 541 q 111 611 121 591 q 56 647 99 642 l 31 650 l 31 681 l 327 681 l 327 650 l 286 647 q 231 611 244 644 q 221 541 221 590 l 221 345 l 397 504 q 444 545 420 524 q 483 591 479 577 q 485 608 485 599 q 463 642 485 633 q 416 650 451 647 l 416 681 l 703 681 l 703 650 q 624 619 680 643 q 537 556 579 593 l 416 451 l 607 141 q 665 68 639 90 q 750 30 696 42 l 750 0 z "},"l":{"ha":600,"x_min":31,"x_max":629,"o":"m 629 214 l 549 0 l 31 0 l 31 31 l 56 34 q 111 70 99 39 q 121 140 121 90 l 121 541 q 111 611 121 591 q 56 647 99 642 l 31 650 l 31 681 l 318 681 l 318 650 q 255 639 296 648 q 221 541 221 623 l 221 119 q 227 73 221 87 q 262 45 236 54 q 307 38 282 38 q 544 153 437 38 q 602 227 563 174 l 629 214 z "},"m":{"ha":920,"x_min":26,"x_max":895,"o":"m 895 0 l 614 0 l 614 31 l 639 34 q 696 70 682 39 q 704 141 704 90 l 704 610 l 453 0 l 408 0 l 179 622 l 179 141 q 213 42 179 58 q 279 31 227 36 l 279 0 l 26 0 l 26 31 q 89 42 48 33 q 122 141 122 58 l 122 541 q 114 611 122 591 q 57 647 100 642 l 33 650 l 33 681 l 265 681 l 457 166 l 666 681 l 895 681 l 895 650 q 837 638 874 648 q 804 541 804 622 l 804 141 q 837 43 804 60 q 895 31 850 36 l 895 0 z "},"n":{"ha":741,"x_min":26,"x_max":722,"o":"m 722 650 q 665 638 703 648 q 631 537 631 622 l 631 0 l 544 0 l 172 606 l 172 141 q 207 42 172 58 q 273 31 220 36 l 273 0 l 26 0 l 26 31 l 50 34 q 109 70 94 39 q 117 141 117 90 l 117 541 q 109 611 117 591 q 50 647 94 642 l 26 650 l 26 681 l 249 681 l 575 142 l 575 541 q 542 639 575 623 q 475 650 528 646 l 475 681 l 722 681 l 722 650 z "},"o":{"ha":800,"x_min":44,"x_max":758,"o":"m 758 338 q 656 88 758 184 q 399 -9 554 -9 q 146 91 248 -9 q 44 342 44 190 q 150 593 44 492 q 404 694 255 694 q 658 593 558 694 q 758 338 758 492 m 640 332 q 587 545 640 460 q 402 646 524 646 q 218 550 283 646 q 162 342 162 467 q 216 132 162 216 q 401 35 281 35 q 585 127 519 35 q 640 332 640 209 z "},"p":{"ha":620,"x_min":31,"x_max":613,"o":"m 613 490 q 590 398 613 441 q 362 292 532 292 l 221 292 l 221 144 q 229 71 221 91 q 286 34 243 38 l 323 31 l 323 0 l 31 0 l 31 31 l 56 34 q 113 72 100 39 q 121 144 121 91 l 121 537 q 113 609 121 590 q 56 647 100 642 l 31 650 l 31 681 l 363 681 q 536 640 469 681 q 613 490 613 590 m 511 487 q 419 629 511 598 q 335 639 387 639 q 274 636 290 639 q 227 608 233 630 q 221 575 221 597 l 221 334 l 346 334 q 420 345 391 334 q 487 400 463 359 q 511 487 511 440 z "},"q":{"ha":819,"x_min":44,"x_max":769,"o":"m 769 337 q 675 91 769 194 q 717 -3 717 38 q 694 -77 717 -43 q 561 -163 652 -135 q 399 -186 488 -186 q 288 -175 340 -186 q 174 -138 222 -162 q 103 -53 103 -101 q 160 -7 103 -7 q 221 -66 216 -7 q 229 -96 222 -86 q 309 -131 245 -118 q 399 -141 355 -141 q 612 -58 554 -141 q 629 -3 629 -33 q 614 42 629 12 q 407 -9 519 -9 q 150 88 256 -9 q 44 335 44 184 q 151 592 44 489 q 411 694 257 694 q 668 594 567 694 q 769 337 769 493 m 651 341 q 594 549 651 464 q 411 646 529 646 q 221 545 290 646 q 162 330 162 457 q 187 187 162 254 q 271 71 216 109 q 370 33 306 45 q 333 86 333 57 q 387 152 333 130 q 476 168 425 168 q 612 139 530 168 q 651 341 651 233 m 570 84 q 468 110 519 110 q 414 101 438 110 q 381 65 381 89 q 444 33 381 33 q 570 84 517 33 z "},"r":{"ha":720,"x_min":31,"x_max":757,"o":"m 757 0 l 590 0 l 366 321 l 221 321 l 221 139 q 255 42 221 58 q 321 31 268 35 l 321 0 l 31 0 l 31 31 l 56 34 q 111 70 99 39 q 121 139 121 89 l 121 542 q 111 611 121 591 q 56 647 99 642 l 31 650 l 31 681 l 438 681 q 595 644 536 681 q 669 509 669 599 q 638 411 669 455 q 557 349 608 368 q 484 331 530 337 l 650 96 q 757 31 687 44 l 757 0 m 561 505 q 370 640 561 640 q 248 624 280 640 q 221 581 221 611 l 221 363 l 389 363 q 460 371 432 363 q 533 420 505 382 q 561 505 561 457 z "},"s":{"ha":660,"x_min":28,"x_max":634,"o":"m 634 202 q 542 42 634 101 q 355 -9 463 -9 q 149 50 233 -9 l 130 0 l 93 0 l 28 229 l 65 241 q 351 35 175 35 q 475 73 422 35 q 532 184 532 117 q 503 255 532 228 q 399 298 475 279 l 265 332 q 71 457 105 373 q 60 515 60 486 q 78 586 60 551 q 288 694 135 694 q 477 646 398 694 l 489 681 l 525 681 l 586 500 l 554 488 q 309 646 449 646 q 211 620 254 646 q 161 538 161 590 q 207 463 161 492 q 297 431 236 445 l 422 399 q 585 332 541 371 q 634 202 634 284 z "},"t":{"ha":620,"x_min":-33,"x_max":656,"o":"m 656 505 l 621 493 q 401 643 537 643 q 368 633 376 643 q 359 599 359 624 l 359 144 q 368 71 359 92 q 425 34 382 37 l 464 31 l 464 0 l 155 0 l 155 31 l 195 34 q 252 71 237 37 q 260 144 260 92 l 260 603 q 216 643 260 643 q 0 493 87 643 l -33 505 l 20 681 l 600 681 l 656 505 z "},"u":{"ha":780,"x_min":25,"x_max":753,"o":"m 753 650 q 696 638 734 648 q 664 537 664 622 l 664 204 q 655 121 664 153 q 392 -9 616 -9 q 203 33 268 -9 q 135 100 155 62 q 115 202 115 138 l 115 537 q 102 621 115 598 q 25 650 89 643 l 25 681 l 317 681 l 317 650 l 280 647 q 224 612 237 644 q 215 542 215 591 l 215 261 q 239 109 215 150 q 407 35 282 35 q 570 91 522 35 q 603 172 595 121 q 607 263 607 200 l 607 542 q 574 639 607 622 q 509 650 561 646 l 509 681 l 753 681 l 753 650 z "},"v":{"ha":700,"x_min":-26,"x_max":725,"o":"m 725 650 q 678 642 695 647 q 591 530 631 629 l 373 0 l 313 0 l 88 546 q 62 602 72 585 q 17 640 43 631 q -26 650 8 643 l -26 681 l 269 681 l 269 650 q 183 606 183 647 q 192 565 183 587 l 368 111 l 541 547 q 550 589 550 572 q 458 650 550 646 l 458 681 l 725 681 l 725 650 z "},"w":{"ha":960,"x_min":-26,"x_max":984,"o":"m 984 650 q 944 643 960 648 q 870 541 902 630 l 675 0 l 617 0 l 471 437 l 324 0 l 265 0 l 77 541 q 57 591 68 565 q 24 631 43 620 q -26 650 12 642 l -26 681 l 243 681 l 243 650 q 195 642 208 648 q 170 606 170 631 q 176 574 170 591 l 321 134 l 441 515 q 404 603 422 578 q 324 650 379 637 l 324 681 l 598 681 l 598 650 q 550 642 562 646 q 525 604 525 631 q 529 581 525 593 l 675 136 l 809 552 q 814 589 814 570 q 806 619 814 605 q 773 643 794 637 q 732 650 768 646 l 732 681 l 984 681 l 984 650 z "},"x":{"ha":720,"x_min":-26,"x_max":755,"o":"m 755 0 l 427 0 l 427 31 q 476 39 452 35 q 508 72 508 47 q 484 125 508 93 l 345 312 l 191 122 q 176 84 176 105 q 252 31 176 35 l 252 0 l -26 0 l -26 31 q 77 84 38 54 q 155 166 106 106 l 314 353 l 142 572 q 89 628 109 614 q 16 650 62 646 l 16 681 l 326 681 l 326 650 q 249 612 249 646 q 267 572 249 597 l 391 410 l 508 560 q 528 607 528 586 q 458 650 528 648 l 458 681 l 727 681 l 727 650 q 658 630 681 642 q 599 586 629 617 q 550 532 572 559 l 419 371 l 611 121 q 672 58 647 74 q 755 31 703 37 l 755 0 z "},"y":{"ha":640,"x_min":-26,"x_max":666,"o":"m 666 650 q 579 613 610 639 q 520 538 556 594 l 355 286 l 355 139 q 363 69 355 90 q 420 34 378 37 l 460 31 l 460 0 l 149 0 l 149 31 l 190 34 q 248 71 233 37 q 255 144 255 92 l 255 284 l 88 550 q 43 614 57 599 q -26 650 17 639 l -26 681 l 255 681 l 255 650 q 176 609 176 640 q 191 573 176 597 l 332 345 l 475 563 q 490 606 490 587 q 416 650 490 638 l 416 681 l 666 681 l 666 650 z "},"z":{"ha":640,"x_min":9,"x_max":656,"o":"m 656 205 l 585 0 l 28 0 l 9 31 l 481 627 q 361 639 423 639 q 196 604 261 639 q 73 488 132 570 l 40 500 l 113 681 l 608 681 l 619 644 l 151 50 q 279 43 236 43 q 481 75 410 43 q 625 218 574 114 l 656 205 z "}}}
